<?xml version="1.0" encoding="UTF-8" standalone="no"?>
<!-- Created with Inkscape (http://www.inkscape.org/) -->

<svg
   xmlns:dc="http://purl.org/dc/elements/1.1/"
   xmlns:cc="http://creativecommons.org/ns#"
   xmlns:rdf="http://www.w3.org/1999/02/22-rdf-syntax-ns#"
   xmlns:svg="http://www.w3.org/2000/svg"
   xmlns="http://www.w3.org/2000/svg"
   xmlns:sodipodi="http://sodipodi.sourceforge.net/DTD/sodipodi-0.dtd"
   xmlns:inkscape="http://www.inkscape.org/namespaces/inkscape"
   version="1.1"
   id="svg834"
   xml:space="preserve"
   width="388.32001"
   height="240"
   viewBox="0 0 388.32001 240"
   sodipodi:docname="stack.svg"
   inkscape:version="0.92.2 5c3e80d, 2017-08-06"><metadata
     id="metadata840"><rdf:RDF><cc:Work
         rdf:about=""><dc:format>image/svg+xml</dc:format><dc:type
           rdf:resource="http://purl.org/dc/dcmitype/StillImage" /><dc:title></dc:title></cc:Work></rdf:RDF></metadata><defs
     id="defs838"><marker
       inkscape:isstock="true"
       style="overflow:visible;"
       id="marker1322"
       refX="0.0"
       refY="0.0"
       orient="auto"
       inkscape:stockid="Arrow1Send"><path
         transform="scale(0.2) rotate(180) translate(6,0)"
         style="fill-rule:evenodd;stroke:#000000;stroke-width:1pt;stroke-opacity:1;fill:#000000;fill-opacity:1"
         d="M 0.0,0.0 L 5.0,-5.0 L -12.5,0.0 L 5.0,5.0 L 0.0,0.0 z "
         id="path1320" /></marker><marker
       inkscape:isstock="true"
       style="overflow:visible"
       id="marker1318"
       refX="0.0"
       refY="0.0"
       orient="auto"
       inkscape:stockid="Arrow2Sstart"><path
         transform="scale(0.3) translate(-2.3,0)"
         d="M 8.7185878,4.0337352 L -2.2072895,0.016013256 L 8.7185884,-4.0017078 C 6.9730900,-1.6296469 6.9831476,1.6157441 8.7185878,4.0337352 z "
         style="fill-rule:evenodd;stroke-width:0.625;stroke-linejoin:round;stroke:#000000;stroke-opacity:1;fill:#000000;fill-opacity:1"
         id="path1316" /></marker><marker
       inkscape:stockid="Arrow1Send"
       orient="auto"
       refY="0.0"
       refX="0.0"
       id="Arrow1Send"
       style="overflow:visible;"
       inkscape:isstock="true"
       inkscape:collect="always"><path
         id="path1007"
         d="M 0.0,0.0 L 5.0,-5.0 L -12.5,0.0 L 5.0,5.0 L 0.0,0.0 z "
         style="fill-rule:evenodd;stroke:#000000;stroke-width:1pt;stroke-opacity:1;fill:#000000;fill-opacity:1"
         transform="scale(0.2) rotate(180) translate(6,0)" /></marker><marker
       inkscape:stockid="Arrow2Sstart"
       orient="auto"
       refY="0.0"
       refX="0.0"
       id="Arrow2Sstart"
       style="overflow:visible"
       inkscape:isstock="true"
       inkscape:collect="always"><path
         id="path1022"
         style="fill-rule:evenodd;stroke-width:0.625;stroke-linejoin:round;stroke:#000000;stroke-opacity:1;fill:#000000;fill-opacity:1"
         d="M 8.7185878,4.0337352 L -2.2072895,0.016013256 L 8.7185884,-4.0017078 C 6.9730900,-1.6296469 6.9831476,1.6157441 8.7185878,4.0337352 z "
         transform="scale(0.3) translate(-2.3,0)" /></marker><marker
       inkscape:stockid="Arrow2Mstart"
       orient="auto"
       refY="0.0"
       refX="0.0"
       id="Arrow2Mstart"
       style="overflow:visible"
       inkscape:isstock="true"><path
         id="path1016"
         style="fill-rule:evenodd;stroke-width:0.625;stroke-linejoin:round;stroke:#000000;stroke-opacity:1;fill:#000000;fill-opacity:1"
         d="M 8.7185878,4.0337352 L -2.2072895,0.016013256 L 8.7185884,-4.0017078 C 6.9730900,-1.6296469 6.9831476,1.6157441 8.7185878,4.0337352 z "
         transform="scale(0.6) translate(0,0)" /></marker><clipPath
       clipPathUnits="userSpaceOnUse"
       id="clipPath854"><path
         d="M 48.26,42.68 H 280.44 V 169.2 H 48.26 Z"
         id="path852"
         inkscape:connector-curvature="0" /></clipPath><clipPath
       clipPathUnits="userSpaceOnUse"
       id="clipPath940"><path
         d="M -1016,-351 H 1660 V 1068 H -1016 Z"
         id="path938"
         inkscape:connector-curvature="0" /></clipPath><clipPath
       clipPathUnits="userSpaceOnUse"
       id="clipPath952"><path
         d="M 48.26,42.68 H 280.44 V 169.2 H 48.26 Z"
         id="path950"
         inkscape:connector-curvature="0" /></clipPath><clipPath
       clipPathUnits="userSpaceOnUse"
       id="clipPath962"><path
         d="M 48.26,42.68 H 280.44 V 169.2 H 48.26 Z"
         id="path960"
         inkscape:connector-curvature="0" /></clipPath></defs><sodipodi:namedview
     pagecolor="#ffffff"
     bordercolor="#666666"
     borderopacity="1"
     objecttolerance="10"
     gridtolerance="10"
     guidetolerance="10"
     inkscape:pageopacity="0"
     inkscape:pageshadow="2"
     inkscape:window-width="2288"
     inkscape:window-height="1245"
     id="namedview836"
     showgrid="false"
     inkscape:zoom="1.9121346"
     inkscape:cx="194.16"
     inkscape:cy="120"
     inkscape:window-x="0"
     inkscape:window-y="0"
     inkscape:window-maximized="0"
     inkscape:current-layer="g842" /><g
     id="g842"
     inkscape:groupmode="layer"
     inkscape:label="stack"
     transform="matrix(1.3333333,0,0,-1.3333333,0,240)"><path
       d="M 48.26,42.68 H 280.44 V 169.2 H 48.26 Z"
       style="fill:#ffffff;fill-opacity:1;fill-rule:nonzero;stroke:none"
       id="path846"
       inkscape:connector-curvature="0" /><g
       id="g848"><g
         id="g850"
         clip-path="url(#clipPath854)"><path
           d="m 48.26,159.99669 v -36.83314 l 0.232412,-0.34449 0.232413,-0.28771 0.232412,-0.31503 0.232413,-0.30236 0.232412,-0.34047 0.232412,-0.24511 0.232413,-0.30058 0.232412,-0.24518 0.232413,-0.31317 0.232412,-0.27037 0.232413,-0.28157 0.232412,-0.24139 0.232412,-0.29327 0.232413,-0.29699 0.232412,-0.22755 0.232413,-0.30224 0.232412,-0.20989 0.232412,-0.27698 0.232413,-0.21293 0.232412,-0.22396 0.232413,-0.2653 0.232412,-0.20069 0.232412,-0.20273 0.232413,-0.20825 0.232412,-0.26129 0.232413,-0.17306 0.232412,-0.19701 0.232413,-0.20489 0.232412,-0.17716 0.232412,-0.19222 0.232413,-0.23266 0.232412,-0.14469 0.232413,-0.1756 0.232412,-0.22301 0.232412,-0.14831 0.232413,-0.21322 0.232412,-0.18015 0.232413,-0.1724 0.232412,-0.11332 0.232412,-0.20104 0.232413,-0.16349 0.232412,-0.16713 0.232413,-0.15573 0.232412,-0.1602 0.232413,-0.14271 0.232412,-0.17423 0.232412,-0.14425 0.232413,-0.14972 0.232412,-0.16593 0.232413,-0.1279 0.232412,-0.14347 0.232412,-0.29158 0.232413,-0.0648 0.232412,-0.13897 0.232413,-0.15468 0.232412,-0.10132 0.232413,-0.13597 0.232412,-0.14056 0.232412,-0.16864 0.232413,-0.11127 0.232412,-0.098 0.232413,-0.1463 0.232412,-0.1458 0.232412,-0.11202 0.232413,-0.12552 0.232412,-0.13552 0.232413,-0.12391 0.232412,-0.12967 0.232412,-0.10069 0.232413,-0.12104 0.232412,-0.12125 0.232413,-0.11291 0.232412,-0.12982 0.232413,-0.12398 0.232412,-0.11265 0.232412,-0.1348 0.232413,-0.0667 0.232412,-0.16826 0.232413,-0.13106 0.232412,-0.0764 0.232412,-0.14091 0.232413,-0.0741 0.232412,-0.17067 0.232413,-0.0942 0.232412,-0.0802 0.232412,-0.11056 0.232413,-0.1426 0.232412,-0.10082 0.232413,-0.11716 0.232412,-0.0914 0.232413,-0.0931 0.232412,-0.12771 0.232412,-0.14826 0.232413,-0.0557 0.232412,-0.12038 0.232413,-0.0828 0.232412,-0.0884 0.232412,-0.10752 0.232413,-0.11249 0.232412,-0.10561 0.232413,-0.0942 0.232412,-0.10878 0.232412,-0.0899 0.232413,-0.10299 0.232412,-0.1232 0.232413,-0.0654 0.232412,-0.10036 0.232413,-0.13161 0.232412,-0.0913 0.232412,-0.0796 0.232413,-0.11182 0.232412,-0.07 0.232413,-0.0941 0.232412,-0.0555 0.232412,-0.0567 0.232413,-0.13369 0.232412,-0.11527 0.232413,-0.0625 0.232412,-0.1083 0.232412,-0.0745 0.232413,-0.0611 0.232412,-0.0895 0.232413,-0.0734 0.232412,-0.0842 0.232413,-0.0779 0.232412,-0.0794 0.232412,-0.10327 0.232413,-0.0617 0.232412,-0.0594 0.232413,-0.0702 0.232412,-0.0868 0.232412,-0.0723 0.232413,-0.0833 0.232412,-0.0814 0.232413,-0.044 0.232412,-0.1023 0.232413,-0.10444 0.232412,-0.0646 0.232412,-0.0984 0.232413,-0.0649 0.232412,-0.0806 0.232413,-0.10637 0.232412,-0.0375 0.232412,-0.11105 0.232413,-0.0788 0.232412,-0.0728 0.232413,-0.11136 0.232412,-0.11224 0.232412,-0.0681 0.232413,-0.0739 0.232412,-0.11263 0.232413,-0.0367 0.232412,-0.0759 0.232413,-0.0645 0.232412,-0.0977 0.232412,-0.0872 0.232413,-0.0858 0.232412,-0.0517 0.232413,-0.0827 0.232412,-0.0875 0.232412,-0.0532 0.232413,-0.0498 0.232412,-0.13354 0.232413,-0.0476 0.232412,-0.0952 0.232412,-0.0867 0.232413,-0.0514 0.232412,-0.0499 0.232413,-0.0673 0.232412,-0.0716 0.232413,-0.0883 0.232412,-0.0749 0.232412,-0.0524 0.232413,-0.0701 0.232412,-0.0907 0.232413,-0.05935 0.232412,-0.06579 0.232412,-0.106593 0.232413,-0.05812 0.232412,-0.07679 0.232413,-0.08993 0.232412,-0.06636 0.232412,-0.08649 0.232413,-0.06307 0.232412,-0.07971 0.232413,-0.03899 0.232412,-0.203556 0.232413,0.05332 0.232412,-0.09749 0.232412,-0.08422 0.232413,-0.101635 0.232412,-0.02783 0.232413,-0.0835 0.232412,-0.06874 0.232412,-0.09333 0.232413,-0.02957 0.232412,-0.110294 0.232413,-0.05741 0.232412,-0.06314 0.232412,-0.06771 0.232413,-0.07375 0.232412,-0.02924 0.232413,-0.114243 0.232412,-0.06318 0.232413,-0.06851 0.232412,-0.102311 0.232412,-0.03708 0.232413,-0.079 0.232412,-0.05121 0.232413,-0.07022 0.232412,-0.05961 0.232412,-0.134811 0.232413,-0.01146 0.232412,-0.08053 0.232413,-0.07939 0.232412,-0.0528 0.232412,-0.07073 0.232413,-0.110556 0.232412,-0.06484 0.232413,-0.0675 0.232412,-0.0839 0.232413,-0.07137 0.232414,-0.02734 0.23241,-0.06588 0.23241,-0.09779 0.23242,-0.06052 0.23241,-0.02653 0.23241,-0.06054 0.23241,-0.03616 0.23242,-0.10535 0.23241,-0.04014 0.23241,-0.08012 0.23241,-0.06168 0.23242,-0.06941 0.23241,-0.03626 0.23241,-0.09043 0.23241,-0.02436 0.23241,-0.08482 0.23242,-0.06947 0.23241,-0.03762 0.23241,-0.07011 0.23241,-0.08104 0.23242,-0.07717 0.23241,-0.102834 0.23241,-0.06739 0.23241,-0.02565 0.23242,-0.08414 0.23241,-0.0451 0.23241,-0.130266 0.23241,-0.01944 0.23242,-0.03765 0.23241,-0.08369 0.23241,-0.08697 0.23241,-0.0662 0.23242,-0.05189 0.23241,-0.06267 0.23241,-0.03221 0.23241,-0.09121 0.23242,-0.02974 0.23241,-0.06543 0.23241,-0.06237 0.23241,-0.06543 0.23241,-0.05205 0.23242,-0.07189 0.23241,-0.105591 0.23241,-0.02007 0.23241,-0.08005 0.23242,-0.04071 0.23241,-0.08063 0.23241,-0.01232 0.23241,-0.07053 0.23242,-0.06926 0.23241,0.01789 0.23241,-0.152764 0.23241,-0.06535 0.23242,-0.02929 0.23241,-0.108616 0.23241,-0.05468 0.23241,-0.06898 0.23241,-0.03697 0.23242,-0.143088 0.23241,-0.02325 0.23241,-0.07309 0.23242,-0.036 0.23241,-0.08042 0.23241,-0.03078 0.23241,-0.03004 0.23241,-0.07332 0.23242,-0.110594 0.23241,-0.01393 0.23241,-0.07791 0.23241,-0.02091 0.23242,-0.05507 0.23241,-0.109913 0.23241,-0.04762 0.23241,-0.06841 0.23242,-0.05021 0.23241,-0.09225 0.23241,-0.0078 0.23241,-0.07896 0.23242,-0.06936 0.23241,-0.0564 0.23241,-0.111881 0.23241,-0.09916 0.23242,-0.103934 0.23241,-0.0026 0.23241,-0.09163 0.23241,-0.09133 0.23241,-0.04592 0.23242,0.0034 0.23241,-0.106494 0.23241,-0.04615 0.23241,-0.08681 0.23242,-0.105019 0.23241,-0.01574 0.23241,-5.49e-4 0.23242,-0.127341 0.23241,-0.01205 0.23241,-0.0591 0.23241,-0.107778 0.23241,-0.104594 0.23242,0.03136 0.23241,-0.149767 0.23241,-0.02821 0.23241,-0.02269 0.23242,-0.03385 0.23241,-0.100623 0.23241,-0.05576 0.23241,-0.07264 0.23242,-0.06361 0.23241,-0.06297 0.23241,-0.04551 0.23241,-0.03177 0.23242,-0.09413 0.23241,-0.06121 0.23241,-0.09688 0.23241,-0.04143 0.23241,0.142459 0.23242,-0.214424 0.23241,-0.03687 0.23241,-0.04759 0.23242,-0.05314 0.23241,-0.01408 0.23241,-0.07088 0.23241,-0.08121 0.23241,-0.09886 0.23242,-0.04373 0.23241,-0.01862 0.23241,-0.07097 0.23241,-0.877983 0.23242,0.636861 0.23241,0.210896 0.23241,-0.07952 0.23241,-0.08996 0.23242,-0.02542 0.23241,-0.05749 0.23241,-0.03874 0.23241,-0.08469 0.23242,-0.01538 0.23241,-0.115078 0.23241,-0.0082 0.23241,-0.0322 0.23242,-0.06893 0.23241,-0.0979 0.23241,-0.0487 0.23241,-0.08586 0.23241,-1.106633 0.23242,0.982446 0.23241,-0.03197 0.23241,-0.01703 0.23241,-0.107673 0.23242,-0.05643 0.23241,-0.01865 0.23241,-0.09275 0.23241,0.0347 0.23242,-0.198871 0.23241,-0.04633 0.23241,-0.09602 0.23241,0.126114 0.23242,-0.253048 0.23241,-0.06738 0.23241,-0.06606 0.23241,-0.06424 0.23242,-0.05143 0.23241,-0.05205 0.23241,-0.05276 0.23241,-0.09403 0.23242,-0.01906 0.23241,-0.05818 0.23241,-0.07174 0.23241,-0.06884 0.23242,-0.0813 0.23241,-0.05499 0.23241,-0.03479 0.23241,-0.0975 0.23241,-0.0587 0.23242,-0.0299 0.23241,-0.06931 0.23241,-0.0759 0.23241,-0.126806 0.23242,-0.0542 0.23241,0.04848 0.23241,-0.08021 0.23241,-0.140871 0.23242,-0.0373 0.23241,-0.08128 0.23241,-0.08272 0.23241,-0.135314 0.23242,-0.01014 0.23241,-0.04727 0.23241,-0.06401 0.23241,-0.103995 0.23242,-0.05078 0.23241,0.10239 0.23241,-0.298383 0.23241,-0.02088 0.23242,-0.07908 0.23241,-0.06703 0.23241,-0.421988 0.23241,0.323715 0.23242,-0.0515 0.23241,-0.161909 0.23241,-0.04074 0.23241,-0.06144 0.23241,-0.04032 0.23242,-0.142561 0.23241,0.03144 0.23241,-0.12215 0.23241,-0.07034 0.23242,-0.03361 0.23241,-0.193513 0.23241,-0.05781 0.23241,-0.06931 0.23242,-0.03415 0.23241,0.161666 0.23241,-0.326778 0.23241,-0.02434 0.23242,-0.153786 0.23241,0.09924 0.23241,-0.196798 0.23241,-0.104943 0.23242,-0.0264 0.23241,0.0233 0.23241,0.03957 0.23241,-0.27128 0.23242,-0.04927 0.23241,-0.04811 0.23241,-0.05932 0.23241,-0.09814 0.23242,-0.06686 0.23241,0.03246 0.23241,-0.149139 0.23241,-0.06828 0.23241,-0.06586 0.23242,-0.08956 0.23241,-0.04728 0.23241,-0.03082 0.23241,-0.12825 0.23242,-0.03086 0.23241,-0.06068 0.23241,-0.207584 0.23241,0.06965 0.23242,-0.07654 0.23241,-0.133666 0.23241,0.05103 0.23241,-0.01073 0.23242,-0.186662 0.23241,-0.0495 0.23241,-0.464678 0.23241,0.223632 0.23242,-0.0159 0.23241,-0.0931 0.23241,-0.04651 0.23241,-0.04771 0.23242,-0.06125 0.23241,-0.04228 0.23241,-0.05007 0.23241,-0.130428 0.23242,0.0283 0.23241,-0.09497 0.23241,-0.07751 0.23241,-0.05421 0.23241,-0.05459 0.23242,-0.08472 0.23241,-0.07104 0.23241,-0.303185 0.23241,0.277799 0.23242,-0.126568 0.23241,-0.04007 0.23241,-0.09248 0.23241,0.0032 0.23242,-0.05216 0.23241,-0.04762 0.23241,-0.116811 0.23241,-0.02896 0.23242,-0.04745 0.23241,-0.171946 0.23241,0.06139 0.23241,-0.09176 0.23242,-0.0038 0.23241,0.05874 0.23241,-0.216911 0.23241,-0.03301 0.23242,-0.12354 0.23241,-0.09363 0.23241,-0.0083 0.23241,-0.05713 0.23242,-0.03073 0.23241,-0.150397 0.23241,-0.0189 0.23241,-0.05933 0.23241,-0.05282 0.23242,-0.016 0.23241,-0.135566 0.23241,0.01669 0.23241,-0.106996 0.23242,-0.154749 0.23241,0.09561 0.23241,-0.08938 0.23241,-0.03482 0.23242,-0.07064 0.23241,-0.04482 0.23241,-0.0305 0.23241,-0.04784 0.23242,0.06737 0.23241,-0.182589 0.23241,-0.06714 0.23241,-0.05277 0.23242,-0.05492 0.23241,-0.03309 0.23241,-0.03738 0.23241,-0.10599 0.23242,-0.04539 0.23241,-0.09131 0.23241,0.02458 0.23241,-0.07604 0.23241,-0.03987 0.23242,-0.122717 0.23241,-0.503777 0.23241,0.419773 0.23241,-0.0029 0.23242,-0.315917 0.23241,-0.203277 0.23241,0.551553 0.23241,-0.43018 0.23242,-0.14956 0.23241,0.04663 0.23241,-0.246667 0.23241,0.227131 0.23242,-0.225413 0.23241,0.121712 0.23241,0.251761 0.23241,-0.415104 0.23242,-0.06047 0.23241,-0.03582 0.23241,-0.05952 0.23241,0.02861 0.23242,-0.153802 0.23241,0.06262 0.23241,-0.07673 0.23241,-0.04476 0.23242,-0.127258 0.23241,-0.533422 0.23241,0.392974 0.23241,-0.09783 0.23242,-0.07405 0.23241,-0.05474 0.23241,0.007 0.23241,-0.122618 0.23241,-0.129731 0.23242,0.02142 0.23241,-0.387726 0.23241,-0.11405 0.23241,0.56 0.23242,-0.170943 0.23241,-0.300258 0.23241,0.312318 0.23241,-0.217011 0.23242,-0.115333 0.23241,0.01788 0.23241,-0.112535 0.23241,0.02498 0.23242,0.209847 0.23241,-0.351472 0.23241,-0.03372 0.23241,-0.05209 0.23242,-0.09438 0.23241,-0.03704 0.23241,0.103436 0.23241,-0.229636 0.23242,-0.04493 0.23241,-0.09048 0.23241,-0.03011 0.23241,-0.07182 0.23241,0.0177 0.23242,-0.09535 0.23241,-0.01546 0.23241,-0.02446 0.23241,-0.139542 0.23242,0.04722 0.23241,-0.08133 0.23241,-0.239641 0.23241,0.06554 0.23242,0.09264 0.23241,-0.02764 0.23241,-0.07465 0.23241,-0.19599 0.23242,0.03913 0.23241,-0.132962 0.23241,0.165103 0.23241,-0.197316 0.23242,-0.02597 0.23241,-0.05532 0.23241,-1.064313 0.23241,0.802266 0.23242,-0.02995 0.23241,-0.239656 0.23241,0.161747 0.23241,-0.110987 0.23242,-0.0026 0.23241,0.0058 0.23241,-0.121191 0.23241,-0.07501 0.23241,-0.144529 0.23242,-0.05722 0.23241,0.235068 0.23241,-0.03481 0.23241,-0.454105 0.23242,-0.195214 0.23241,0.499259 0.23241,-0.10971 0.23241,-0.168372 0.23242,0.0178 0.23241,-0.103243 0.23241,-0.01591 0.23241,-0.01127 0.23242,-0.105634 0.23241,-0.03646 0.23241,-0.02714 0.23241,-0.01043 0.23242,-0.09777 0.23241,-0.01886 0.23241,-0.04225 0.23241,-0.06489 0.23242,-0.541837 0.23241,-0.03418 0.23241,0.363667 0.23241,0.05922 0.23242,-0.164346 0.23241,-0.02449 0.23241,-0.133882 0.23241,-0.04422 0.23241,-0.113961 0.23242,0.0059 0.23241,-0.03749 0.23241,0.155928 0.23241,-0.208413 0.23242,-0.127384 0.23241,0.07109 0.23241,0.07456 0.23241,-0.265648 0.23242,-0.04211 0.23241,-0.08048 0.23241,-0.12306 0.23241,-0.251984 0.23242,0.365045 0.23241,-0.144725 0.23241,0.24295 0.23241,-0.258044 0.23242,-0.119578 0.23241,-0.01517 0.23241,0.179564 0.23241,-0.490212 0.23242,0.185619 0.23241,-0.09518 0.23241,-0.320695 0.23241,0.286583 0.23242,-0.06109 0.23241,0.04416 0.23241,-0.224604 0.23241,-0.0047 0.23241,0.0051 0.23242,-0.03512 0.23241,-0.01688 0.23241,-0.393098 0.23241,0.284078 0.23242,0.0229 0.23241,-0.177455 0.23241,0.003 0.23241,-0.109845 0.23242,-0.691322 0.23241,0.756659 0.23241,-0.274255 0.23241,-0.266549 0.23242,0.189241 0.23241,-0.121012 0.23241,0.168362 0.23241,0.01454 0.23242,-0.150084 0.23241,-0.141779 0.23241,-0.151627 0.23241,0.147811 0.23242,-0.179578 0.23241,-0.163874 0.23241,-0.365673 0.23241,0.392327 0.23242,-0.132297 0.23241,-0.161004 0.23241,0.07283 0.23241,0.07017 0.23241,-0.176943 0.23242,-0.01953 0.23241,-0.05991 0.23241,0.01125 0.23241,-0.04171 0.23242,-0.25869 0.23241,0.02178 0.23241,1.055124 0.23241,-0.605514 0.23242,-0.516323 0.23241,-1.025648 0.23241,0.874984 0.23241,0.164049 0.23242,-0.308282 0.23241,0.559521 0.23241,-0.167984 0.23241,-0.385207 0.23242,0.06033 0.23241,-0.259567 0.23241,-0.176247 0.23241,0.106383 0.23242,0.0036 0.23241,-0.12231 0.23241,0.01365 0.23241,-0.157326 0.23242,-0.158263 0.23241,0.03122 0.23241,0.04083 0.23241,-0.06808 0.23241,-0.04312 0.23242,0.0018 0.23241,-0.236496 0.23241,0.145854 0.23241,-0.0013 0.23242,-0.111879 0.23241,-0.04694 0.23241,0.0029 0.23241,-0.108279 0.23242,-0.0091 0.23241,-0.540743 0.23241,-0.03445 0.23241,-1.603449 0.23242,1.893679 0.23241,-0.01937 0.23241,-0.03438 0.23241,0.860372 0.23242,-1.166618 0.23241,-0.171467 0.23241,-0.152154 0.23241,0.0085 0.23242,-0.212303 0.23241,0.214214 0.23241,-0.248316 0.23241,0.0037 0.23241,-0.134215 0.23242,-0.161842 0.23241,0.214147 0.23241,-0.02738 0.23242,0.08429 0.23241,0.07207 0.23241,-0.670035 0.23241,0.219179 0.23241,0.09883 0.23242,-0.576806 0.23241,-0.250092 0.23241,3.95e-4 0.23241,-0.09614 0.23242,-0.190797 0.23241,-0.124666 0.23241,0.04301 0.23241,-0.324977 0.23242,0.586801 0.23241,-0.314756 0.23241,-0.294772 0.23241,-1.464348 0.23242,0.655729 0.23241,-0.0498 0.23241,0.04178 0.23241,-0.218806 0.23242,0.201175 0.23241,-0.0028 0.23241,-0.151724 0.23241,-0.158125 0.23241,-0.238498 0.23242,0.03398 0.23241,0.172755 0.23241,0.009 0.23241,-0.04907 0.23242,-4.76e-4 0.23241,-0.171786 0.23241,-0.294018 0.23241,0.376609 0.23242,-0.315662 0.23241,0.149055 0.23241,0.05825 0.23241,0.03959 0.23242,-0.296393 0.23241,-0.07785 0.23241,-0.370595 0.23241,0.431516 0.23242,-0.06412 0.23241,-0.0046 0.23241,-0.0374 0.23241,-0.294932 0.23242,-0.01647 0.23241,0.09472 0.23241,-0.145434 0.23241,-0.03151 0.23242,-0.280744 0.23241,0.157167 0.23241,-0.03806 0.23241,-0.06015 0.23241,-0.153792 0.23242,-0.0023 0.23241,0.408937 0.23241,-0.643807 0.23241,0.154 0.23242,0.04498 0.23241,0.733902 0.23241,-0.884441 0.23241,-0.154721 0.23242,0.565169 0.23241,-0.764341 0.23241,-0.538488 0.23241,-0.0075 0.23242,-0.275906 0.23241,0.08388 0.23241,-0.0138 0.23241,-1.088239 0.23242,0.814751 0.23241,-0.08301 0.23241,0.01057 0.23241,-0.528055 0.23242,0.193297 0.23241,0.08256 0.23241,-0.104636 0.23241,-0.08704 0.23242,0.260044 0.23241,-0.589832 0.23241,0.291357 0.23241,-6.75e-4 0.23241,0.042 0.23242,-0.231822 0.23241,-0.04906 0.23241,0.03821 0.23241,-0.01656 0.23242,-0.13545 0.23241,0.07885 0.23241,-0.1477 0.23241,-0.07913 0.23242,0.118915 0.23241,0.29823 0.23241,-0.615235 0.23241,-0.159655 0.23242,0.221848 0.23241,0.01225 0.23241,-0.356766 0.23241,0.350599 0.23242,-0.153058 0.23241,0.0851 0.23241,-0.236573 0.23241,-0.955387 0.23242,1.186018 0.23241,-0.489539 0.23241,0.364078 0.23241,-0.230688 0.23242,-0.08791 0.23241,-0.207609 0.23241,0.494414 0.23241,-0.08177 0.23241,-0.439284 0.23242,0.316405 0.23241,-0.44176 0.23241,0.05172 0.23241,-0.04614 0.23242,-0.197669 0.23241,-0.320367 0.23241,0.40713 0.23241,-0.158396 0.23242,0.05237 0.23241,-0.311113 0.23241,-0.447743 0.23241,0.633215 0.23242,-0.585459 0.23241,0.361803 0.23241,-0.02565 0.23241,-0.382438 0.23242,-0.02188 0.23241,0.171807 0.23241,0.156963 0.23241,-0.229873 0.23242,-0.01991 0.23241,-0.09581 0.23241,0.0254 0.23241,0.271954 0.23242,-0.29616 0.23241,0.04598 0.23241,-0.330079 0.23241,-0.007 0.23241,-0.123672 0.23242,-0.268589 0.23241,0.01713 0.23241,0.277784 0.23242,0.02867 0.23241,-0.02596 0.23241,-0.167989 0.23241,0.114582 0.23241,-0.172184 0.23242,-0.02165 0.23241,0.31992 0.23241,-0.434567 0.23241,0.125317 0.23242,0.0052 0.23241,-0.131976 0.23241,-0.0777 0.23241,0.181685 0.23242,-0.380218 0.23241,0.332318 0.23241,-0.291405 0.23241,-0.09848 0.23242,0.04201 0.23241,0.505239 0.23241,-0.826522 0.23241,0.04586 0.23242,0.110348 0.23241,-0.170364 0.23241,-0.04045 0.23241,-0.221785 0.23241,0.126639 0.23242,0.36852 0.23241,-0.346754 0.23241,-0.0018 0.23241,-0.08293 0.23242,0.741049 0.23241,-1.250444 0.23241,-1.067653 0.23241,1.297498 0.23242,-0.503753 0.23241,0.446616 0.23241,-0.385069 0.23241,-0.251414 0.23242,0.119236 0.23241,0.02396 0.23241,-0.155904 0.23241,-0.111354 0.23242,0.05375 0.23241,-0.06579 0.23241,-0.102377 0.23241,0.02339 0.23242,-0.104812 0.23241,1.617404 0.23241,-1.647939 0.23241,0.126149 0.23242,0.138098 0.23241,-0.589753 0.23241,0.116445 0.23241,0.01572 0.23241,0.13617 0.23242,-0.299648 0.23241,-0.01435 0.23241,-0.09209 0.23242,-0.182969 0.23241,-0.208875 0.23241,0.857432 0.23241,-0.438582 0.23241,-0.236481 0.23242,-0.0828 0.23241,0.279746 0.23241,0.09623 0.23241,-0.189473 0.23242,-0.31607 0.23241,-0.20146 0.23241,0.15901 0.23241,-0.449562 0.23242,0.09168 0.23241,-0.06664 0.23241,0.313906 0.23241,-0.376708 0.23242,-0.06637 0.23241,0.307293 0.23241,-0.974374 0.23241,-0.66227 0.23242,0.08058 0.23241,1.026246 0.23241,-1.40744 0.23241,-0.245725 0.23241,-0.09425 0.23242,-0.15573 0.23241,1.03019 v 36.833139 0 l -0.23241,-1.03019 -0.23242,0.15573 -0.23241,0.09425 -0.23241,0.245726 -0.23241,1.40744 -0.23241,-1.026247 -0.23242,-0.08058 -0.23241,0.66227 -0.23241,0.974373 -0.23241,-0.307292 -0.23242,0.06637 -0.23241,0.376708 -0.23241,-0.313906 -0.23241,0.06664 -0.23242,-0.09168 -0.23241,0.449562 -0.23241,-0.15901 -0.23241,0.20146 -0.23242,0.316069 -0.23241,0.189474 -0.23241,-0.09623 -0.23241,-0.279746 -0.23242,0.0828 -0.23241,0.236481 -0.23241,0.438582 -0.23241,-0.857432 -0.23241,0.208875 -0.23242,0.182969 -0.23241,0.09209 -0.23241,0.01435 -0.23242,0.299647 -0.23241,-0.13617 -0.23241,-0.01573 -0.23241,-0.116445 -0.23241,0.589754 -0.23242,-0.138099 -0.23241,-0.126149 -0.23241,1.64794 -0.23241,-1.617405 -0.23242,0.104812 -0.23241,-0.02339 -0.23241,0.102378 -0.23241,0.06579 -0.23242,-0.05375 -0.23241,0.111354 -0.23241,0.155904 -0.23241,-0.02396 -0.23242,-0.119236 -0.23241,0.251414 -0.23241,0.385069 -0.23241,-0.446616 -0.23242,0.503753 -0.23241,-1.297498 -0.23241,1.067652 -0.23241,1.250445 -0.23242,-0.74105 -0.23241,0.08293 -0.23241,0.0018 -0.23241,0.346754 -0.23242,-0.36852 -0.23241,-0.126639 -0.23241,0.221785 -0.23241,0.04045 -0.23241,0.170365 -0.23242,-0.110348 -0.23241,-0.04586 -0.23241,0.826521 -0.23241,-0.505238 -0.23242,-0.04201 -0.23241,0.09848 -0.23241,0.291405 -0.23241,-0.332319 -0.23242,0.380219 -0.23241,-0.181685 -0.23241,0.0777 -0.23241,0.131976 -0.23242,-0.0052 -0.23241,-0.125317 -0.23241,0.434567 -0.23241,-0.319921 -0.23242,0.02165 -0.23241,0.172184 -0.23241,-0.114582 -0.23241,0.167989 -0.23241,0.02596 -0.23242,-0.02867 -0.23241,-0.277784 -0.23241,-0.01712 -0.23242,0.26859 -0.23241,0.123672 -0.23241,0.007 -0.23241,0.330079 -0.23241,-0.04598 -0.23242,0.29616 -0.23241,-0.271954 -0.23241,-0.0254 -0.23241,0.09581 -0.23242,0.01991 -0.23241,0.229873 -0.23241,-0.156963 -0.23241,-0.171807 -0.23242,0.02188 -0.23241,0.382438 -0.23241,0.02565 -0.23241,-0.361803 -0.23242,0.585458 -0.23241,-0.633215 -0.23241,0.447743 -0.23241,0.311114 -0.23242,-0.05237 -0.23241,0.158396 -0.23241,-0.40713 -0.23241,0.320367 -0.23242,0.197669 -0.23241,0.04614 -0.23241,-0.05172 -0.23241,0.441759 -0.23242,-0.316404 -0.23241,0.439284 -0.23241,0.08177 -0.23241,-0.494413 -0.23241,0.207609 -0.23242,0.0879 -0.23241,0.230689 -0.23241,-0.364078 -0.23241,0.489539 -0.23242,-1.186018 -0.23241,0.955387 -0.23241,0.236572 -0.23241,-0.0851 -0.23242,0.153057 -0.23241,-0.350599 -0.23241,0.356766 -0.23241,-0.01225 -0.23242,-0.221848 -0.23241,0.159654 -0.23241,0.615236 -0.23241,-0.298231 -0.23242,-0.118914 -0.23241,0.07913 -0.23241,0.1477 -0.23241,-0.07885 -0.23242,0.13545 -0.23241,0.01656 -0.23241,-0.03821 -0.23241,0.04906 -0.23242,0.231822 -0.23241,-0.042 -0.23241,6.74e-4 -0.23241,-0.291356 -0.23241,0.589831 -0.23242,-0.260043 -0.23241,0.08704 -0.23241,0.104636 -0.23241,-0.08256 -0.23242,-0.193298 -0.23241,0.528055 -0.23241,-0.01057 -0.23241,0.08301 -0.23242,-0.814751 -0.23241,1.088239 -0.23241,0.01381 -0.23241,-0.08388 -0.23242,0.275905 -0.23241,0.0075 -0.23241,0.538489 -0.23241,0.764341 -0.23242,-0.565169 -0.23241,0.154721 -0.23241,0.884441 -0.23241,-0.733902 -0.23242,-0.04499 -0.23241,-0.153999 -0.23241,0.643807 -0.23241,-0.408937 -0.23242,0.0023 -0.23241,0.153791 -0.23241,0.06015 -0.23241,0.03806 -0.23241,-0.157168 -0.23242,0.280744 -0.23241,0.03151 -0.23241,0.145434 -0.23241,-0.09472 -0.23242,0.01647 -0.23241,0.294932 -0.23241,0.0374 -0.23241,0.0046 -0.23242,0.06412 -0.23241,-0.431517 -0.23241,0.370596 -0.23241,0.07785 -0.23242,0.296392 -0.23241,-0.03959 -0.23241,-0.05825 -0.23241,-0.149055 -0.23242,0.315662 -0.23241,-0.376609 -0.23241,0.294018 -0.23241,0.171786 -0.23242,4.76e-4 -0.23241,0.04908 -0.23241,-0.009 -0.23241,-0.172755 -0.23242,-0.03398 -0.23241,0.238498 -0.23241,0.158125 -0.23241,0.151723 -0.23241,0.0028 -0.23242,-0.201175 -0.23241,0.218805 -0.23241,-0.04178 -0.23241,0.0498 -0.23242,-0.655729 -0.23241,1.464347 -0.23241,0.294773 -0.23241,0.31476 -0.23242,-0.586806 -0.23241,0.324976 -0.23241,-0.043 -0.23241,0.12466 -0.23242,0.1908 -0.23241,0.0961 -0.23241,-3.9e-4 -0.23241,0.25009 -0.23242,0.5768 -0.23241,-0.0988 -0.23241,-0.21918 -0.23241,0.67003 -0.23241,-0.0721 -0.23242,-0.0843 -0.23241,0.0274 -0.23241,-0.21415 -0.23242,0.16184 -0.23241,0.13422 -0.23241,-0.004 -0.23241,0.24832 -0.23241,-0.21421 -0.23242,0.2123 -0.23241,-0.008 -0.23241,0.15216 -0.23241,0.17147 -0.23242,1.16661 -0.23241,-0.86037 -0.23241,0.0344 -0.23241,0.0194 -0.23242,-1.89368 -0.23241,1.60345 -0.23241,0.0345 -0.23241,0.54074 -0.23242,0.009 -0.23241,0.10828 -0.23241,-0.003 -0.23241,0.0469 -0.23242,0.11188 -0.23241,10e-4 -0.23241,-0.14585 -0.23241,0.2365 -0.23242,-0.002 -0.23241,0.0431 -0.23241,0.0681 -0.23241,-0.0408 -0.23241,-0.0312 -0.23242,0.15827 -0.23241,0.15732 -0.23241,-0.0136 -0.23241,0.12231 -0.23242,-0.004 -0.23241,-0.10638 -0.23241,0.17624 -0.23241,0.25957 -0.23242,-0.0603 -0.23241,0.38521 -0.23241,0.16798 -0.23241,-0.55952 -0.23242,0.30828 -0.23241,-0.16404 -0.23241,-0.87499 -0.23241,1.02565 -0.23242,0.51632 -0.23241,0.60552 -0.23241,-1.05513 -0.23241,-0.0218 -0.23242,0.25869 -0.23241,0.0417 -0.23241,-0.0112 -0.23241,0.0599 -0.23242,0.0195 -0.23241,0.17694 -0.23241,-0.0702 -0.23241,-0.0728 -0.23241,0.161 -0.23242,0.1323 -0.23241,-0.39233 -0.23241,0.36567 -0.23241,0.16388 -0.23242,0.17958 -0.23241,-0.14782 -0.23241,0.15163 -0.23241,0.14178 -0.23242,0.15008 -0.23241,-0.0145 -0.23241,-0.16836 -0.23241,0.12101 -0.23242,-0.18924 -0.23241,0.26655 -0.23241,0.27425 -0.23241,-0.75666 -0.23242,0.69133 -0.23241,0.10984 -0.23241,-0.003 -0.23241,0.17746 -0.23242,-0.0229 -0.23241,-0.28408 -0.23241,0.3931 -0.23241,0.0169 -0.23242,0.0351 -0.23241,-0.005 -0.23241,0.005 -0.23241,0.2246 -0.23241,-0.0442 -0.23242,0.0611 -0.23241,-0.28658 -0.23241,0.32069 -0.23241,0.0952 -0.23242,-0.18562 -0.23241,0.49021 -0.23241,-0.17956 -0.23241,0.0152 -0.23242,0.11958 -0.23241,0.25804 -0.23241,-0.24295 -0.23241,0.14472 -0.23242,-0.36504 -0.23241,0.25198 -0.23241,0.12306 -0.23241,0.0805 -0.23242,0.0421 -0.23241,0.26565 -0.23241,-0.0746 -0.23241,-0.0711 -0.23242,0.12738 -0.23241,0.20842 -0.23241,-0.15593 -0.23241,0.0375 -0.23242,-0.006 -0.23241,0.11396 -0.23241,0.0442 -0.23241,0.13388 -0.23241,0.0245 -0.23242,0.16435 -0.23241,-0.0592 -0.23241,-0.36367 -0.23241,0.0342 -0.23242,0.54184 -0.23241,0.0649 -0.23241,0.0422 -0.23241,0.0189 -0.23242,0.0978 -0.23241,0.0104 -0.23241,0.0271 -0.23241,0.0365 -0.23242,0.10563 -0.23241,0.0113 -0.23241,0.0159 -0.23241,0.10324 -0.23242,-0.0178 -0.23241,0.16837 -0.23241,0.10971 -0.23241,-0.49926 -0.23242,0.19521 -0.23241,0.45411 -0.23241,0.0348 -0.23241,-0.23507 -0.23242,0.0572 -0.23241,0.14453 -0.23241,0.075 -0.23241,0.12119 -0.23241,-0.006 -0.23242,0.003 -0.23241,0.11099 -0.23241,-0.16175 -0.23241,0.23966 -0.23242,0.0299 -0.23241,-0.80227 -0.23241,1.06431 -0.23241,0.0553 -0.23242,0.026 -0.23241,0.19731 -0.23241,-0.1651 -0.23241,0.13296 -0.23242,-0.0391 -0.23241,0.19599 -0.23241,0.0747 -0.23241,0.0276 -0.23242,-0.0926 -0.23241,-0.0655 -0.23241,0.23964 -0.23241,0.0813 -0.23242,-0.0472 -0.23241,0.13955 -0.23241,0.0245 -0.23241,0.0155 -0.23242,0.0954 -0.23241,-0.0177 -0.23241,0.0718 -0.23241,0.0301 -0.23241,0.0905 -0.23242,0.0449 -0.23241,0.22964 -0.23241,-0.10344 -0.23241,0.037 -0.23242,0.0944 -0.23241,0.0521 -0.23241,0.0337 -0.23241,0.35148 -0.23242,-0.20985 -0.23241,-0.025 -0.23241,0.11253 -0.23241,-0.0179 -0.23242,0.11533 -0.23241,0.21701 -0.23241,-0.31232 -0.23241,0.30026 -0.23242,0.17094 -0.23241,-0.56 -0.23241,0.11405 -0.23241,0.38773 -0.23242,-0.0214 -0.23241,0.12973 -0.23241,0.12262 -0.23241,-0.007 -0.23241,0.0547 -0.23242,0.074 -0.23241,0.0978 -0.23241,-0.39297 -0.23241,0.53342 -0.23242,0.12726 -0.23241,0.0447 -0.23241,0.0767 -0.23241,-0.0626 -0.23242,0.15381 -0.23241,-0.0286 -0.23241,0.0595 -0.23241,0.0358 -0.23242,0.0605 -0.23241,0.4151 -0.23241,-0.25176 -0.23241,-0.12171 -0.23242,0.22541 -0.23241,-0.22713 -0.23241,0.24667 -0.23241,-0.0466 -0.23242,0.14956 -0.23241,0.43018 -0.23241,-0.55155 -0.23241,0.20327 -0.23242,0.31592 -0.23241,0.003 -0.23241,-0.41977 -0.23241,0.50378 -0.23242,0.12272 -0.23241,0.0399 -0.23241,0.076 -0.23241,-0.0246 -0.23241,0.0913 -0.23242,0.0454 -0.23241,0.10599 -0.23241,0.0374 -0.23241,0.0331 -0.23242,0.0549 -0.23241,0.0528 -0.23241,0.0671 -0.23241,0.18259 -0.23242,-0.0674 -0.23241,0.0478 -0.23241,0.0305 -0.23241,0.0448 -0.23242,0.0706 -0.23241,0.0348 -0.23241,0.0894 -0.23241,-0.0956 -0.23242,0.15475 -0.23241,0.107 -0.23241,-0.0167 -0.23241,0.13557 -0.23242,0.016 -0.23241,0.0528 -0.23241,0.0593 -0.23241,0.0189 -0.23241,0.1504 -0.23242,0.0307 -0.23241,0.0571 -0.23241,0.008 -0.23241,0.0936 -0.23242,0.12354 -0.23241,0.033 -0.23241,0.21691 -0.23241,-0.0587 -0.23242,0.004 -0.23241,0.0918 -0.23241,-0.0614 -0.23241,0.17194 -0.23242,0.0474 -0.23241,0.029 -0.23241,0.11681 -0.23241,0.0476 -0.23242,0.0521 -0.23241,-0.003 -0.23241,0.0925 -0.23241,0.0401 -0.23242,0.12657 -0.23241,-0.2778 -0.23241,0.30318 -0.23241,0.071 -0.23242,0.0847 -0.23241,0.0546 -0.23241,0.0542 -0.23241,0.0775 -0.23241,0.095 -0.23242,-0.0283 -0.23241,0.13043 -0.23241,0.0501 -0.23241,0.0423 -0.23242,0.0613 -0.23241,0.0477 -0.23241,0.0465 -0.23241,0.0931 -0.23242,0.0159 -0.23241,-0.22364 -0.23241,0.46468 -0.23241,0.0495 -0.23242,0.18666 -0.23241,0.0107 -0.23241,-0.051 -0.23241,0.13367 -0.23242,0.0765 -0.23241,-0.0696 -0.23241,0.20758 -0.23241,0.0607 -0.23242,0.0309 -0.23241,0.12825 -0.23241,0.0308 -0.23241,0.0473 -0.23242,0.0896 -0.23241,0.0659 -0.23241,0.0683 -0.23241,0.14914 -0.23241,-0.0325 -0.23242,0.0669 -0.23241,0.0981 -0.23241,0.0593 -0.23241,0.0481 -0.23242,0.0493 -0.23241,0.27128 -0.23241,-0.0396 -0.23241,-0.0233 -0.23242,0.0264 -0.23241,0.10495 -0.23241,0.19679 -0.23241,-0.0992 -0.23242,0.15379 -0.23241,0.0243 -0.23241,0.32678 -0.23241,-0.16167 -0.23242,0.0342 -0.23241,0.0693 -0.23241,0.0578 -0.23241,0.19351 -0.23242,0.0336 -0.23241,0.0703 -0.23241,0.12215 -0.23241,-0.0314 -0.23242,0.14256 -0.23241,0.0403 -0.23241,0.0614 -0.23241,0.0407 -0.23241,0.16191 -0.23242,0.0515 -0.23241,-0.32372 -0.23241,0.42199 -0.23241,0.067 -0.23242,0.0791 -0.23241,0.0209 -0.23241,0.29838 -0.23241,-0.10239 -0.23242,0.0508 -0.23241,0.10399 -0.23241,0.064 -0.23241,0.0473 -0.23242,0.0101 -0.23241,0.13532 -0.23241,0.0827 -0.23241,0.0813 -0.23242,0.0373 -0.23241,0.14087 -0.23241,0.0802 -0.23241,-0.0485 -0.23242,0.0542 -0.23241,0.12681 -0.23241,0.0759 -0.23241,0.0693 -0.23242,0.0299 -0.23241,0.0587 -0.23241,0.0975 -0.23241,0.0348 -0.23241,0.055 -0.23242,0.0813 -0.23241,0.0688 -0.23241,0.0717 -0.23241,0.0582 -0.23242,0.0191 -0.23241,0.094 -0.23241,0.0528 -0.23241,0.0521 -0.23242,0.0514 -0.23241,0.0643 -0.23241,0.066 -0.23241,0.0674 -0.23242,0.25305 -0.23241,-0.12612 -0.23241,0.096 -0.23241,0.0463 -0.23242,0.19888 -0.23241,-0.0347 -0.23241,0.0927 -0.23241,0.0187 -0.23242,0.0564 -0.23241,0.10767 -0.23241,0.017 -0.23241,0.032 -0.23242,-0.98245 -0.23241,1.10664 -0.23241,0.0859 -0.23241,0.0487 -0.23241,0.0979 -0.23242,0.0689 -0.23241,0.0322 -0.23241,0.008 -0.23241,0.11508 -0.23242,0.0154 -0.23241,0.0847 -0.23241,0.0387 -0.23241,0.0575 -0.23242,0.0254 -0.23241,0.09 -0.23241,0.0795 -0.23241,-0.21089 -0.23242,-0.63687 -0.23241,0.87799 -0.23241,0.071 -0.23241,0.0186 -0.23242,0.0437 -0.23241,0.0989 -0.23241,0.0812 -0.23241,0.0709 -0.23241,0.0141 -0.23242,0.0531 -0.23241,0.0476 -0.23241,0.0369 -0.23242,0.21442 -0.23241,-0.14246 -0.23241,0.0414 -0.23241,0.0969 -0.23241,0.0612 -0.23242,0.0941 -0.23241,0.0318 -0.23241,0.0455 -0.23241,0.063 -0.23242,0.0636 -0.23241,0.0726 -0.23241,0.0558 -0.23241,0.10063 -0.23242,0.0339 -0.23241,0.0227 -0.23241,0.0282 -0.23241,0.14976 -0.23242,-0.0314 -0.23241,0.10459 -0.23241,0.10778 -0.23241,0.0591 -0.23241,0.0121 -0.23242,0.12734 -0.23241,5.5e-4 -0.23241,0.0157 -0.23242,0.10501 -0.23241,0.0868 -0.23241,0.0461 -0.23241,0.1065 -0.23242,-0.003 -0.23241,0.0459 -0.23241,0.0913 -0.23241,0.0916 -0.23241,0.003 -0.23242,0.10394 -0.23241,0.0992 -0.23241,0.11188 -0.23241,0.0564 -0.23242,0.0694 -0.23241,0.0789 -0.23241,0.008 -0.23241,0.0922 -0.23242,0.0502 -0.23241,0.0684 -0.23241,0.0476 -0.23241,0.10992 -0.23242,0.0551 -0.23241,0.0209 -0.23241,0.0779 -0.23241,0.0139 -0.23242,0.11059 -0.23241,0.0733 -0.23241,0.03 -0.23241,0.0308 -0.23241,0.0804 -0.23242,0.036 -0.23241,0.0731 -0.23241,0.0233 -0.23242,0.14308 -0.23241,0.037 -0.23241,0.069 -0.23241,0.0547 -0.23241,0.10861 -0.23242,0.0293 -0.23241,0.0654 -0.23241,0.15276 -0.23241,-0.0179 -0.23242,0.0693 -0.23241,0.0705 -0.23241,0.0123 -0.23241,0.0806 -0.23242,0.0407 -0.23241,0.0801 -0.23241,0.0201 -0.23241,0.10559 -0.23242,0.0719 -0.23241,0.052 -0.23241,0.0654 -0.23241,0.0624 -0.23241,0.0654 -0.23242,0.0297 -0.23241,0.0912 -0.23241,0.0322 -0.23241,0.0627 -0.23242,0.0519 -0.23241,0.0662 -0.23241,0.087 -0.23241,0.0837 -0.23242,0.0377 -0.23241,0.0194 -0.23241,0.13026 -0.23241,0.0451 -0.23242,0.0841 -0.23241,0.0257 -0.23241,0.0674 -0.23241,0.10284 -0.23242,0.0772 -0.23241,0.081 -0.23241,0.0701 -0.23241,0.0376 -0.23242,0.0695 -0.23241,0.0848 -0.23241,0.0244 -0.23241,0.0904 -0.23241,0.0363 -0.23242,0.0694 -0.23241,0.0617 -0.23241,0.0801 -0.23241,0.0401 -0.23242,0.10535 -0.23241,0.0362 -0.23241,0.0605 -0.23241,0.0265 -0.23242,0.0605 -0.23241,0.0978 -0.23241,0.0659 -0.232414,0.0273 -0.232413,0.0714 -0.232412,0.0839 -0.232413,0.0675 -0.232412,0.0648 -0.232413,0.11055 -0.232412,0.0707 -0.232412,0.0528 -0.232413,0.0794 -0.232412,0.0805 -0.232413,0.0115 -0.232412,0.13481 -0.232412,0.0596 -0.232413,0.0702 -0.232412,0.0512 -0.232413,0.079 -0.232412,0.0371 -0.232412,0.10231 -0.232413,0.0685 -0.232412,0.0632 -0.232413,0.11424 -0.232412,0.0292 -0.232413,0.0737 -0.232412,0.0677 -0.232412,0.0631 -0.232413,0.0574 -0.232412,0.11029 -0.232413,0.0296 -0.232412,0.0933 -0.232412,0.0687 -0.232413,0.0835 -0.232412,0.0278 -0.232413,0.10164 -0.232412,0.0842 -0.232412,0.0975 -0.232413,-0.0533 -0.232412,0.20356 -0.232413,0.039 -0.232412,0.0797 -0.232413,0.0631 -0.232412,0.0865 -0.232412,0.0664 -0.232413,0.0899 -0.232412,0.0768 -0.232413,0.0581 -0.232412,0.10659 -0.232412,0.0658 -0.232413,0.0593 -0.232412,0.0907 -0.232413,0.0701 -0.232412,0.0524 -0.232412,0.0749 -0.232413,0.0883 -0.232412,0.0716 -0.232413,0.0673 -0.232412,0.0499 -0.232413,0.0514 -0.232412,0.0867 -0.232412,0.0952 -0.232413,0.0476 -0.232412,0.13354 -0.232413,0.0498 -0.232412,0.0532 -0.232412,0.0875 -0.232413,0.0827 -0.232412,0.0517 -0.232413,0.0858 -0.232412,0.0872 -0.232412,0.0977 -0.232413,0.0645 -0.232412,0.0759 -0.232413,0.0367 -0.232412,0.11263 -0.232413,0.0739 -0.232412,0.0681 -0.232412,0.11224 -0.232413,0.11136 -0.232412,0.0728 -0.232413,0.0788 -0.232412,0.11105 -0.232412,0.0375 -0.232413,0.10638 -0.232412,0.0806 -0.232413,0.0649 -0.232412,0.0984 -0.232412,0.0646 -0.232413,0.10445 -0.232412,0.1023 -0.232413,0.044 -0.232412,0.0814 -0.232413,0.0833 -0.232412,0.0723 -0.232412,0.0868 -0.232413,0.0702 -0.232412,0.0594 -0.232413,0.0617 -0.232412,0.10327 -0.232412,0.0794 -0.232413,0.0779 -0.232412,0.0842 -0.232413,0.0734 -0.232412,0.0895 -0.232413,0.0611 -0.232412,0.0745 -0.232412,0.1083 -0.232413,0.0625 -0.232412,0.11527 -0.232413,0.13369 -0.232412,0.0566 -0.232412,0.0555 -0.232413,0.0941 -0.232412,0.07 -0.232413,0.11182 -0.232412,0.0796 -0.232412,0.0913 -0.232413,0.13161 -0.232412,0.10035 -0.232413,0.0654 -0.232412,0.12319 -0.232413,0.103 -0.232412,0.0899 -0.232412,0.10879 -0.232413,0.0942 -0.232412,0.10561 -0.232413,0.11249 -0.232412,0.10752 -0.232412,0.0884 -0.232413,0.0828 -0.232412,0.12038 -0.232413,0.0557 -0.232412,0.14826 -0.232412,0.12771 -0.232413,0.0931 -0.232412,0.0914 -0.232413,0.11716 -0.232412,0.10082 -0.232413,0.1426 -0.232412,0.11056 -0.232412,0.0803 -0.232413,0.0942 -0.232412,0.17067 -0.232413,0.0741 -0.232412,0.1409 -0.232412,0.0764 -0.232413,0.13107 -0.232412,0.16826 -0.232413,0.0667 -0.232412,0.1348 -0.232412,0.11265 -0.232413,0.12398 -0.232412,0.12982 -0.232413,0.11291 -0.232412,0.12125 -0.232413,0.12104 -0.232412,0.10068 -0.232412,0.12968 -0.232413,0.12391 -0.232412,0.13552 -0.232413,0.12552 -0.232412,0.11202 -0.232412,0.1458 -0.232413,0.1463 -0.232412,0.098 -0.232413,0.11127 -0.232412,0.16863 -0.232412,0.14057 -0.232413,0.13596 -0.232412,0.10133 -0.232413,0.15468 -0.232412,0.13897 -0.232413,0.0648 -0.232412,0.29158 -0.232412,0.14347 -0.232413,0.1279 -0.232412,0.16593 -0.232413,0.14972 -0.232412,0.14425 -0.232412,0.17423 -0.232413,0.14271 -0.232412,0.16019 -0.232413,0.15573 -0.232412,0.16714 -0.232413,0.16349 -0.232412,0.20104 -0.232412,0.11331 -0.232413,0.17241 -0.232412,0.18015 -0.232413,0.21321 -0.232412,0.14832 -0.232412,0.22301 -0.232413,0.1756 -0.232412,0.14469 -0.232413,0.23266 -0.232412,0.19222 -0.232412,0.17715 -0.232413,0.2049 -0.232412,0.19701 -0.232413,0.17306 -0.232412,0.26129 -0.232413,0.20825 -0.232412,0.20273 -0.232412,0.20069 -0.232413,0.2653 -0.232412,0.22395 -0.232413,0.21294 -0.232412,0.27698 -0.232412,0.20988 -0.232413,0.30225 -0.232412,0.22755 -0.232413,0.29698 -0.232412,0.29328 -0.232412,0.24139 -0.232413,0.28157 -0.232412,0.27037 -0.232413,0.31317 -0.232412,0.24518 -0.232413,0.30057 -0.232412,0.24512 -0.232412,0.34047 -0.232413,0.30236 -0.232412,0.31503 -0.232413,0.28771 -0.232412,0.34449 z"
           style="fill:#1f77b4;fill-opacity:0.5;fill-rule:nonzero;stroke:none"
           id="path856"
           inkscape:connector-curvature="0" /></g></g><g
       id="g858"><path
         d="m 48.26,42.68 v -3.5"
         style="fill:#000000;fill-opacity:1;fill-rule:nonzero;stroke:#000000;stroke-width:0.80000001;stroke-linecap:butt;stroke-linejoin:round;stroke-miterlimit:10;stroke-dasharray:none;stroke-opacity:1"
         id="path860"
         inkscape:connector-curvature="0" /><text
         transform="matrix(1,0,0,-1,45.080313,28.08625)"
         style="font-variant:normal;font-weight:normal;font-size:10px;font-family:DejaVuSans;-inkscape-font-specification:DejaVuSans;writing-mode:lr-tb;fill:#000000;fill-opacity:1;fill-rule:nonzero;stroke:none"
         id="text864"><tspan
           x="0"
           y="0"
           id="tspan862">0</tspan></text>
<path
         d="m 96.630833,42.68 v -3.5"
         style="fill:#000000;fill-opacity:1;fill-rule:nonzero;stroke:#000000;stroke-width:0.80000001;stroke-linecap:butt;stroke-linejoin:round;stroke-miterlimit:10;stroke-dasharray:none;stroke-opacity:1"
         id="path866"
         inkscape:connector-curvature="0" /><text
         transform="matrix(1,0,0,-1,93.451146,28.08625)"
         style="font-variant:normal;font-weight:normal;font-size:10px;font-family:DejaVuSans;-inkscape-font-specification:DejaVuSans;writing-mode:lr-tb;fill:#000000;fill-opacity:1;fill-rule:nonzero;stroke:none"
         id="text870"><tspan
           x="0"
           y="0"
           id="tspan868">5</tspan></text>
<path
         d="m 145.00167,42.68 v -3.5"
         style="fill:#000000;fill-opacity:1;fill-rule:nonzero;stroke:#000000;stroke-width:0.80000001;stroke-linecap:butt;stroke-linejoin:round;stroke-miterlimit:10;stroke-dasharray:none;stroke-opacity:1"
         id="path872"
         inkscape:connector-curvature="0" /><text
         transform="matrix(1,0,0,-1,138.64229,28.08625)"
         style="font-variant:normal;font-weight:normal;font-size:10px;font-family:DejaVuSans;-inkscape-font-specification:DejaVuSans;writing-mode:lr-tb;fill:#000000;fill-opacity:1;fill-rule:nonzero;stroke:none"
         id="text876"><tspan
           x="0 6.3600001"
           y="0"
           sodipodi:role="line"
           id="tspan874">10</tspan></text>
<path
         d="m 193.3725,42.68 v -3.5"
         style="fill:#000000;fill-opacity:1;fill-rule:nonzero;stroke:#000000;stroke-width:0.80000001;stroke-linecap:butt;stroke-linejoin:round;stroke-miterlimit:10;stroke-dasharray:none;stroke-opacity:1"
         id="path878"
         inkscape:connector-curvature="0" /><text
         transform="matrix(1,0,0,-1,187.01312,28.08625)"
         style="font-variant:normal;font-weight:normal;font-size:10px;font-family:DejaVuSans;-inkscape-font-specification:DejaVuSans;writing-mode:lr-tb;fill:#000000;fill-opacity:1;fill-rule:nonzero;stroke:none"
         id="text882"><tspan
           x="0 6.3600001"
           y="0"
           sodipodi:role="line"
           id="tspan880">15</tspan></text>
<path
         d="m 241.74333,42.68 v -3.5"
         style="fill:#000000;fill-opacity:1;fill-rule:nonzero;stroke:#000000;stroke-width:0.80000001;stroke-linecap:butt;stroke-linejoin:round;stroke-miterlimit:10;stroke-dasharray:none;stroke-opacity:1"
         id="path884"
         inkscape:connector-curvature="0" /><text
         transform="matrix(1,0,0,-1,235.38396,28.08625)"
         style="font-variant:normal;font-weight:normal;font-size:10px;font-family:DejaVuSans;-inkscape-font-specification:DejaVuSans;writing-mode:lr-tb;fill:#000000;fill-opacity:1;fill-rule:nonzero;stroke:none"
         id="text888"><tspan
           x="0 6.3600001"
           y="0"
           sodipodi:role="line"
           id="tspan886">20</tspan></text>
<text
         transform="matrix(1,0,0,-1,125.30313,12.883125)"
         style="font-variant:normal;font-weight:normal;font-size:12px;font-family:DejaVuSans;-inkscape-font-specification:DejaVuSans;writing-mode:lr-tb;fill:#000000;fill-opacity:1;fill-rule:nonzero;stroke:none"
         id="text892"><tspan
           x="0 7.3319998 10.668 22.356001 29.736 33.551998 38.231998 47.256001 54.599998 62.208 67.139999 73.391998"
           y="0"
           sodipodi:role="line"
           id="tspan890">Time [Hours]</tspan></text>
<path
         d="m 48.26,42.68 h -3.5"
         style="fill:#000000;fill-opacity:1;fill-rule:nonzero;stroke:#000000;stroke-width:0.80000001;stroke-linecap:butt;stroke-linejoin:round;stroke-miterlimit:10;stroke-dasharray:none;stroke-opacity:1"
         id="path894"
         inkscape:connector-curvature="0" /><text
         transform="matrix(1,0,0,-1,34.900625,38.883125)"
         style="font-variant:normal;font-weight:normal;font-size:10px;font-family:DejaVuSans;-inkscape-font-specification:DejaVuSans;writing-mode:lr-tb;fill:#000000;fill-opacity:1;fill-rule:nonzero;stroke:none"
         id="text898"><tspan
           x="0"
           y="0"
           id="tspan896">0</tspan></text>
<path
         d="m 48.26,81.609231 h -3.5"
         style="fill:#000000;fill-opacity:1;fill-rule:nonzero;stroke:#000000;stroke-width:0.80000001;stroke-linecap:butt;stroke-linejoin:round;stroke-miterlimit:10;stroke-dasharray:none;stroke-opacity:1"
         id="path900"
         inkscape:connector-curvature="0" /><text
         transform="matrix(1,0,0,-1,28.54125,77.812356)"
         style="font-variant:normal;font-weight:normal;font-size:10px;font-family:DejaVuSans;-inkscape-font-specification:DejaVuSans;writing-mode:lr-tb;fill:#000000;fill-opacity:1;fill-rule:nonzero;stroke:none"
         id="text904"><tspan
           x="0 6.3600001"
           y="0"
           sodipodi:role="line"
           id="tspan902">20</tspan></text>
<path
         d="m 48.26,120.53846 h -3.5"
         style="fill:#000000;fill-opacity:1;fill-rule:nonzero;stroke:#000000;stroke-width:0.80000001;stroke-linecap:butt;stroke-linejoin:round;stroke-miterlimit:10;stroke-dasharray:none;stroke-opacity:1"
         id="path906"
         inkscape:connector-curvature="0" /><text
         transform="matrix(1,0,0,-1,28.54125,116.74159)"
         style="font-variant:normal;font-weight:normal;font-size:10px;font-family:DejaVuSans;-inkscape-font-specification:DejaVuSans;writing-mode:lr-tb;fill:#000000;fill-opacity:1;fill-rule:nonzero;stroke:none"
         id="text910"><tspan
           x="0 6.3600001"
           y="0"
           sodipodi:role="line"
           id="tspan908">40</tspan></text>
<path
         d="m 48.26,159.46769 h -3.5"
         style="fill:#000000;fill-opacity:1;fill-rule:nonzero;stroke:#000000;stroke-width:0.80000001;stroke-linecap:butt;stroke-linejoin:round;stroke-miterlimit:10;stroke-dasharray:none;stroke-opacity:1"
         id="path912"
         inkscape:connector-curvature="0" /><text
         transform="matrix(1,0,0,-1,28.54125,155.67082)"
         style="font-variant:normal;font-weight:normal;font-size:10px;font-family:DejaVuSans;-inkscape-font-specification:DejaVuSans;writing-mode:lr-tb;fill:#000000;fill-opacity:1;fill-rule:nonzero;stroke:none"
         id="text916"><tspan
           x="0 6.3600001"
           y="0"
           sodipodi:role="line"
           id="tspan914">60</tspan></text>
<g
         id="g918"
         transform="rotate(90,-18.699375,40.240625)"><text
           transform="matrix(1,0,0,-1,0,0.875)"
           style="font-variant:normal;font-weight:normal;font-size:12px;font-family:DejaVuSans;-inkscape-font-specification:DejaVuSans;writing-mode:lr-tb;fill:#000000;fill-opacity:1;fill-rule:nonzero;stroke:none"
           id="text922"><tspan
             x="0 8.7832031 20.648438 29.888672 33.703125 41.285156 53.150391 56.964844"
             y="0"
             sodipodi:role="line"
             id="tspan920">UWD EW [</tspan></text>
<text
           transform="matrix(1,0,0,-1,69.28125,0.875)"
           style="font-style:italic;font-variant:normal;font-size:12px;font-family:DejaVuSans;-inkscape-font-specification:DejaVuSans-Oblique;writing-mode:lr-tb;fill:#000000;fill-opacity:1;fill-rule:nonzero;stroke:none"
           id="text926"><tspan
             x="0 4.9335938 12.287109"
             y="0"
             sodipodi:role="line"
             id="tspan924">rad</tspan></text>
<text
           transform="matrix(1,0,0,-1,89.185547,0.875)"
           style="font-variant:normal;font-weight:normal;font-size:12px;font-family:DejaVuSans;-inkscape-font-specification:DejaVuSans;writing-mode:lr-tb;fill:#000000;fill-opacity:1;fill-rule:nonzero;stroke:none"
           id="text930"><tspan
             x="0"
             y="0"
             id="tspan928">]</tspan></text>
<g
           id="g932"
           transform="matrix(0.012,0,0,0.012,61.646484,0.875)"><g
             id="g934"><g
               id="g936"
               clip-path="url(#clipPath940)"><g
                 id="g942"><path
                   d="m -12,-207 146,754 h 90 L 158,207 c -2,-8 -3,-16 -4,-24 -1,-8 -1,-17 -1,-25 0,-30 9,-54 28,-70 19,-16 46,-24 82,-24 48,0 86,13 116,41 30,27 50,68 61,123 l 62,319 h 90 L 510,126 c -2,-6 -3,-12 -3,-16 0,-4 0,-8 0,-12 0,-10 2,-18 6,-22 4,-5 10,-7 19,-7 3,0 7,0 13,2 6,2 14,5 25,9 L 556,8 C 542,1 528,-3 515,-7 c -13,-4 -26,-6 -38,-6 -22,0 -39,7 -51,20 C 414,20 408,39 408,63 390,37 368,17 343,5 317,-7 288,-13 254,-13 223,-13 196,-6 174,7 152,21 137,39 130,62 L 77,-207 h -89"
                   style="fill:#000000;fill-opacity:1;fill-rule:nonzero;stroke:none"
                   id="path944"
                   inkscape:connector-curvature="0" /></g></g></g></g></g></g><g
       id="g946"><g
         id="g948"
         clip-path="url(#clipPath952)"><path
           d="m 48.26,141.58012 1.162062,-1.59006 1.162062,-1.37441 1.859299,-2.12988 3.718599,-3.29545 1.162062,-0.8274 0.92965,-0.6874 3.021361,-1.95974 3.486186,-1.91617 7.902022,-3.74047 0.697238,-0.29736 3.951011,-1.43935 13.479919,-4.50344 0.697238,-0.18177 0.232412,-0.20356 0.232413,0.0533 1.162062,-0.39467 14.641984,-4.23307 0.92965,-0.21859 17.89575,-4.82339 0.23241,0.14246 0.23242,-0.21442 1.39447,-0.30377 0.46483,-0.14259 0.46482,-0.0896 0.23241,-0.87798 0.23242,0.63686 0.23241,0.21089 1.39447,-0.37581 0.92965,-0.17089 0.92965,-0.30139 0.23241,-1.10664 0.23242,0.98245 1.16206,-0.23176 0.23241,-0.0927 0.23241,0.0347 0.23242,-0.19887 0.46482,-0.14236 0.23241,0.12612 0.23242,-0.25305 3.71859,-0.99305 0.69724,-0.17512 0.46483,-0.181 0.23241,0.0485 2.55654,-0.83389 0.23241,0.10239 0.23241,-0.29838 0.69724,-0.16699 0.23241,-0.42198 0.23241,0.32371 1.16206,-0.3559 0.23242,-0.14256 0.23241,0.0314 0.46482,-0.19249 0.23242,-0.0336 0.46482,-0.25132 0.46483,-0.10347 0.23241,0.16167 0.23241,-0.32678 0.23241,-0.0243 0.23242,-0.15378 0.23241,0.0992 0.46482,-0.30174 0.46483,-0.003 0.23241,0.0396 0.23241,-0.27128 1.8593,-0.50665 1.62689,-0.4533 0.23241,-0.207584 0.23241,0.06965 0.69724,-0.159167 0.23241,-0.01073 0.69724,-0.70084 0.23241,0.223632 0.69724,-0.155519 2.32412,-0.584725 0.46483,-0.155767 0.23241,-0.303185 0.23241,0.2778 0.69724,-0.259116 0.69724,-0.0966 0.46482,-0.145768 0.23242,-0.04745 0.23241,-0.171945 0.23241,0.06139 0.46483,-0.09554 0.23241,0.05874 0.23241,-0.216911 0.46483,-0.156552 0.46482,-0.10194 2.32412,-0.611194 0.23242,-0.154749 0.23241,0.09561 0.92965,-0.239663 1.16206,-0.260696 2.55654,-0.634898 0.23241,-0.503776 0.23241,0.419773 0.23241,-0.0029 0.46483,-0.519194 0.23241,0.551553 0.23241,-0.43018 0.23242,-0.149559 0.23241,0.04663 0.23241,-0.246667 0.23241,0.227131 0.23242,-0.225413 0.23241,0.121711 0.23241,0.251761 0.23241,-0.415104 1.16207,-0.281005 0.23241,0.06262 0.69724,-0.248744 0.23241,-0.533423 0.23241,0.392975 0.69724,-0.226619 0.23241,0.007 0.46482,-0.252348 0.23242,0.02142 0.23241,-0.387727 0.23241,-0.114049 0.23241,0.559999 0.46483,-0.471201 0.23241,0.312319 0.46483,-0.332344 0.23241,0.01788 0.23241,-0.112534 0.23241,0.02498 0.23242,0.209846 0.23241,-0.351471 1.16206,-0.113797 0.23241,-0.229635 2.55654,-0.528571 0.23241,-0.23964 0.69724,0.130541 0.23241,-0.07465 0.23241,-0.195989 0.23242,0.03913 0.23241,-0.132963 0.23241,0.165103 0.23241,-0.197315 0.46483,-0.08129 0.23241,-1.064314 0.23241,0.802267 0.23242,-0.02995 0.23241,-0.239655 0.23241,0.161747 0.46483,-0.113561 0.23241,0.0058 0.92965,-0.397951 0.23241,0.235068 0.23241,-0.03481 0.23241,-0.454104 0.23242,-0.195215 0.23241,0.499259 0.92965,-0.36353 0.92965,-0.169272 1.39447,-0.261339 0.23242,-0.541836 0.23241,-0.03418 0.23241,0.363666 0.23241,0.05922 0.23242,-0.164346 0.46482,-0.158374 0.92965,-0.189821 0.23241,0.155928 0.46483,-0.335798 0.46482,0.145652 0.23241,-0.265647 0.46483,-0.122591 0.23241,-0.12306 0.23241,-0.251983 0.23242,0.365044 0.23241,-0.144725 0.23241,0.242951 0.46483,-0.377623 0.23241,-0.01517 0.23241,0.179563 0.23241,-0.490211 0.23242,0.185618 0.23241,-0.09518 0.23241,-0.320694 0.23241,0.286583 1.39448,-0.276222 0.23241,-0.01688 0.23241,-0.393098 0.23241,0.284078 0.23242,0.0229 0.23241,-0.177455 0.23241,0.003 0.23241,-0.109845 0.23242,-0.691321 0.23241,0.756658 0.46482,-0.540804 0.23242,0.189242 0.23241,-0.121013 0.23241,0.168362 0.23241,0.01454 0.69724,-0.44349 0.23241,0.147812 0.46483,-0.343453 0.23241,-0.365672 0.23241,0.392326 0.46483,-0.293301 0.46482,0.143003 0.23241,-0.176942 0.92965,-0.109898 0.23242,-0.25869 0.23241,0.02178 0.23241,1.055124 0.46483,-1.121837 0.23241,-1.025647 0.23241,0.874983 0.23241,0.164049 0.23242,-0.308282 0.23241,0.559522 0.23241,-0.167984 0.23241,-0.385208 0.23242,0.06033 0.46482,-0.435814 0.46483,0.10998 0.23241,-0.122309 0.23241,0.01364 0.46483,-0.315588 0.69723,0.004 0.46483,-0.0413 0.23241,-0.236496 0.23241,0.145853 0.46483,-0.11321 0.92965,-0.161352 0.23241,-0.540743 0.23241,-0.03445 0.23241,-1.603449 0.23242,1.893679 0.46482,-0.05375 0.23241,0.860372 0.23242,-1.166619 0.46482,-0.323621 0.23241,0.0085 0.23242,-0.212303 0.23241,0.214214 0.23241,-0.248315 0.23241,0.0037 0.46483,-0.296056 0.23241,0.214146 0.46483,0.05691 0.23241,0.07207 0.23241,-0.670035 0.46482,0.318006 0.23242,-0.576805 0.23241,-0.250092 0.46482,-0.09575 0.46483,-0.315462 0.23241,0.043 0.23241,-0.324978 0.23242,0.586801 0.46482,-0.609528 0.23241,-1.464347 0.23242,0.655729 0.69723,-0.226827 0.23242,0.201175 0.23241,-0.0028 0.92965,-0.51437 0.23241,0.172755 0.69724,-0.04054 0.46482,-0.465805 0.23241,0.37661 0.23242,-0.315663 0.46482,0.207302 0.23241,0.03959 0.23242,-0.296393 0.23241,-0.07785 0.23241,-0.370595 0.23241,0.431516 0.69724,-0.106124 0.23241,-0.294933 0.92965,-0.0987 0.23242,-0.280744 0.23241,0.157167 0.46482,-0.09821 0.23241,-0.153791 0.23242,-0.0023 0.23241,0.408937 0.23241,-0.643807 0.46483,0.198984 0.23241,0.733902 0.23241,-0.88444 0.23241,-0.154722 0.23242,0.56517 0.46482,-1.30283 0.23241,-0.0075 0.23242,-0.275906 0.46482,0.07007 0.23241,-1.08824 0.23242,0.814752 0.46482,-0.07244 0.23241,-0.528055 0.46483,0.275859 0.46482,-0.191678 0.23242,0.260044 0.23241,-0.589832 0.23241,0.291357 0.46482,0.04133 0.23242,-0.231821 0.46482,-0.01086 0.23241,-0.01656 0.23242,-0.13545 0.23241,0.07885 0.46482,-0.226832 0.23242,0.118914 0.23241,0.29823 0.23241,-0.615235 0.23241,-0.159655 0.23242,0.221849 0.23241,0.01225 0.23241,-0.356766 0.23241,0.350599 0.23242,-0.153058 0.23241,0.0851 0.23241,-0.236573 0.23241,-0.955387 0.23242,1.186018 0.23241,-0.489539 0.23241,0.364078 0.46483,-0.318594 0.23241,-0.207608 0.23241,0.494413 0.23241,-0.08177 0.23241,-0.439284 0.23242,0.316405 0.23241,-0.441759 0.46482,0.0056 0.46483,-0.518036 0.23241,0.40713 0.23241,-0.158397 0.23242,0.05237 0.46482,-0.758856 0.23241,0.633215 0.23242,-0.585459 0.23241,0.361804 0.23241,-0.02565 0.23241,-0.382438 0.23242,-0.02188 0.46482,0.328771 0.23241,-0.229873 0.69724,-0.09032 0.23241,0.271955 0.23242,-0.29616 0.23241,0.04598 0.23241,-0.33008 0.23241,-0.007 0.23241,-0.123673 0.23242,-0.268589 0.23241,0.01712 0.23241,0.277784 0.46483,0.0027 0.23241,-0.16799 0.23241,0.114583 0.23241,-0.172184 0.23242,-0.02165 0.23241,0.31992 0.23241,-0.434567 0.46483,0.130498 0.46482,-0.209679 0.23241,0.181685 0.23242,-0.380218 0.23241,0.332319 0.23241,-0.291405 0.23241,-0.09848 0.23242,0.04201 0.23241,0.505239 0.23241,-0.826521 0.46483,0.156211 0.69723,-0.432598 0.23241,0.126638 0.23242,0.36852 0.23241,-0.346753 0.46482,-0.08476 0.23242,0.74105 0.46482,-2.318097 0.23241,1.297498 0.23242,-0.503754 0.23241,0.446616 0.46482,-0.636482 0.46483,0.143191 0.46482,-0.267258 0.23242,0.05375 0.92965,-0.249586 0.23241,1.617405 0.23241,-1.64794 0.46483,0.264248 0.23241,-0.589754 0.69723,0.26834 0.23242,-0.299647 0.46482,-0.106441 0.46483,-0.391844 0.23241,0.857431 0.46482,-0.675062 0.23242,-0.0828 0.23241,0.279746 0.23241,0.09623 0.69724,-0.707002 0.23241,0.159009 0.23241,-0.449562 0.23242,0.09168 0.23241,-0.06664 0.23241,0.313906 0.23241,-0.376709 0.23242,-0.06637 0.23241,0.307292 0.46482,-1.636643 0.23242,0.08058 0.23241,1.026247 0.23241,-1.407441 0.46482,-0.339973 0.23242,-0.155731 0.23241,1.030191 v 0"
           style="fill:none;stroke:#ffa500;stroke-width:3;stroke-linecap:square;stroke-linejoin:round;stroke-miterlimit:10;stroke-dasharray:none;stroke-opacity:1"
           id="path954"
           inkscape:connector-curvature="0" /></g></g><g
       id="g956"><g
         id="g958"
         clip-path="url(#clipPath962)"><path
           d="m 48.26,141.1487 2.324124,-2.64597 2.324124,-2.31943 2.556537,-2.23684 2.788949,-2.13032 3.021361,-2.01215 3.253774,-1.89303 3.718598,-1.89268 4.183424,-1.86794 4.880661,-1.92478 5.81031,-2.04393 7.437197,-2.36395 9.761321,-2.85433 14.40957,-3.96198 23.93848,-6.32544 37.65081,-9.708039 42.76388,-10.798518 43.46112,-10.744649 17.89576,-4.358225 v 0"
           style="fill:none;stroke:#ff0000;stroke-width:1.5;stroke-linecap:square;stroke-linejoin:round;stroke-miterlimit:10;stroke-dasharray:none;stroke-opacity:1"
           id="path964"
           inkscape:connector-curvature="0" /></g></g><g
       id="g966"><path
         d="M 48.26,42.68 V 169.2"
         style="fill:none;stroke:#000000;stroke-width:0.80000001;stroke-linecap:square;stroke-linejoin:miter;stroke-miterlimit:10;stroke-dasharray:none;stroke-opacity:1"
         id="path968"
         inkscape:connector-curvature="0" /><path
         d="M 280.44,42.68 V 169.2"
         style="fill:none;stroke:#000000;stroke-width:0.80000001;stroke-linecap:square;stroke-linejoin:miter;stroke-miterlimit:10;stroke-dasharray:none;stroke-opacity:1"
         id="path970"
         inkscape:connector-curvature="0" /><path
         d="M 48.26,42.68 H 280.44"
         style="fill:none;stroke:#000000;stroke-width:0.80000001;stroke-linecap:square;stroke-linejoin:miter;stroke-miterlimit:10;stroke-dasharray:none;stroke-opacity:1"
         id="path972"
         inkscape:connector-curvature="0" /><path
         d="M 48.26,169.2 H 280.44"
         style="fill:none;stroke:#000000;stroke-width:0.80000001;stroke-linecap:square;stroke-linejoin:miter;stroke-miterlimit:10;stroke-dasharray:none;stroke-opacity:1"
         id="path974"
         inkscape:connector-curvature="0" /><path
         d="M 205.45562,131.85625 H 273.44 c 1.33333,0 2,0.66667 2,2 V 162.2 c 0,1.33333 -0.66667,2 -2,2 h -67.98438 c -1.33333,0 -2,-0.66667 -2,-2 v -28.34375 c 0,-1.33333 0.66667,-2 2,-2 z"
         style="fill:#ffffff;fill-opacity:0.8;fill-rule:nonzero;stroke:#cccccc;stroke-width:1;stroke-linecap:butt;stroke-linejoin:miter;stroke-miterlimit:10;stroke-dasharray:none;stroke-opacity:0.8"
         id="path976"
         inkscape:connector-curvature="0" /><path
         d="m 207.45562,156.10625 h 20"
         style="fill:none;stroke:#ffa500;stroke-width:3;stroke-linecap:square;stroke-linejoin:round;stroke-miterlimit:10;stroke-dasharray:none;stroke-opacity:1"
         id="path978"
         inkscape:connector-curvature="0" /><text
         transform="matrix(1,0,0,-1,235.45562,152.60625)"
         style="font-variant:normal;font-weight:normal;font-size:10px;font-family:DejaVuSans;-inkscape-font-specification:DejaVuSans;writing-mode:lr-tb;fill:#000000;fill-opacity:1;fill-rule:nonzero;stroke:none"
         id="text982"><tspan
           x="0 7.6999998 13.83 17.75"
           y="0"
           sodipodi:role="line"
           id="tspan980">Data</tspan></text>
<path
         d="m 207.45562,141.43437 h 20"
         style="fill:none;stroke:#ff0000;stroke-width:1.5;stroke-linecap:square;stroke-linejoin:round;stroke-miterlimit:10;stroke-dasharray:none;stroke-opacity:1"
         id="path984"
         inkscape:connector-curvature="0" /><text
         transform="matrix(1,0,0,-1,235.45562,137.93437)"
         style="font-variant:normal;font-weight:normal;font-size:10px;font-family:DejaVuSans;-inkscape-font-specification:DejaVuSans;writing-mode:lr-tb;fill:#000000;fill-opacity:1;fill-rule:nonzero;stroke:none"
         id="text988"><tspan
           x="0 6.8600001 13.01 18.219999 22.139999 25.75 29.27 32.049999"
           y="0"
           sodipodi:role="line"
           id="tspan986">Best-fit</tspan></text>
</g><path
       style="fill:none;stroke:#000000;stroke-width:0.75118113;stroke-linecap:butt;stroke-linejoin:miter;stroke-miterlimit:4;stroke-dasharray:none;stroke-opacity:1;marker-start:url(#Arrow2Sstart);marker-end:url(#Arrow1Send)"
       d="M 50.666831,80.40752 H 65.963872"
       id="path990"
       inkscape:connector-curvature="0"
       sodipodi:nodetypes="cc" /><path
       sodipodi:nodetypes="cc"
       inkscape:connector-curvature="0"
       id="path1314"
       d="m 50.722481,52.166829 227.369879,0"
       style="fill:none;stroke:#000000;stroke-width:0.75118113;stroke-linecap:butt;stroke-linejoin:miter;stroke-miterlimit:4;stroke-dasharray:none;stroke-opacity:1;marker-start:url(#marker1318)" /><text
       xml:space="preserve"
       style="font-style:normal;font-weight:normal;font-size:8px;line-height:1.25;font-family:sans-serif;letter-spacing:0.015px;word-spacing:0px;fill:#000000;fill-opacity:1;stroke:none;stroke-width:0.75"
       x="50.5979"
       y="-86.290993"
       id="text13350"
       transform="scale(1,-1)"><tspan
         sodipodi:role="line"
         id="tspan13348"
         x="50.5979"
         y="-86.290993"
         style="font-size:8px;stroke-width:0.75">2.5 hrs</tspan></text>
<text
       transform="scale(1,-1)"
       id="text13354"
       y="-57.65807"
       x="84.722069"
       style="font-style:normal;font-weight:normal;font-size:8px;line-height:1.25;font-family:sans-serif;letter-spacing:0.015px;word-spacing:0px;fill:#000000;fill-opacity:1;stroke:none;stroke-width:0.75"
       xml:space="preserve"><tspan
         style="font-size:8px;stroke-width:0.75"
         y="-57.65807"
         x="84.722069"
         id="tspan13352"
         sodipodi:role="line">17 days</tspan></text>
</g></svg>