<?xml version="1.0" encoding="UTF-8" standalone="no"?>
<!-- Created with Inkscape (http://www.inkscape.org/) -->

<svg
   xmlns:dc="http://purl.org/dc/elements/1.1/"
   xmlns:cc="http://creativecommons.org/ns#"
   xmlns:rdf="http://www.w3.org/1999/02/22-rdf-syntax-ns#"
   xmlns:svg="http://www.w3.org/2000/svg"
   xmlns="http://www.w3.org/2000/svg"
   xmlns:sodipodi="http://sodipodi.sourceforge.net/DTD/sodipodi-0.dtd"
   xmlns:inkscape="http://www.inkscape.org/namespaces/inkscape"
   version="1.1"
   id="svg16070"
   xml:space="preserve"
   width="529.245"
   height="374.01376"
   viewBox="0 0 529.245 374.01376"
   sodipodi:docname="Tilt_Examples_paper.svg"
   inkscape:version="0.92.2 5c3e80d, 2017-08-06"><metadata
     id="metadata16076"><rdf:RDF><cc:Work
         rdf:about=""><dc:format>image/svg+xml</dc:format><dc:type
           rdf:resource="http://purl.org/dc/dcmitype/StillImage" /><dc:title></dc:title></cc:Work></rdf:RDF></metadata><defs
     id="defs16074"><clipPath
       clipPathUnits="userSpaceOnUse"
       id="clipPath16130"><path
         d="M -1021,-463 H 1794 V 1233 H -1021 Z"
         id="path16128"
         inkscape:connector-curvature="0" /></clipPath><clipPath
       clipPathUnits="userSpaceOnUse"
       id="clipPath16150"><path
         d="M -1021,-463 H 1794 V 1233 H -1021 Z"
         id="path16148"
         inkscape:connector-curvature="0" /></clipPath><clipPath
       clipPathUnits="userSpaceOnUse"
       id="clipPath16174"><path
         d="M -1016,-351 H 1660 V 1068 H -1016 Z"
         id="path16172"
         inkscape:connector-curvature="0" /></clipPath><clipPath
       clipPathUnits="userSpaceOnUse"
       id="clipPath16186"><path
         d="M 57.640865,216.59053 H 397.2918 V 282.29 H 57.640865 Z"
         id="path16184"
         inkscape:connector-curvature="0" /></clipPath><clipPath
       clipPathUnits="userSpaceOnUse"
       id="clipPath16254"><path
         d="M -1021,-463 H 1794 V 1233 H -1021 Z"
         id="path16252"
         inkscape:connector-curvature="0" /></clipPath><clipPath
       clipPathUnits="userSpaceOnUse"
       id="clipPath16274"><path
         d="M -1021,-463 H 1794 V 1233 H -1021 Z"
         id="path16272"
         inkscape:connector-curvature="0" /></clipPath><clipPath
       clipPathUnits="userSpaceOnUse"
       id="clipPath16294"><path
         d="M -1021,-463 H 1794 V 1233 H -1021 Z"
         id="path16292"
         inkscape:connector-curvature="0" /></clipPath><clipPath
       clipPathUnits="userSpaceOnUse"
       id="clipPath16312"><path
         d="M -1016,-351 H 1660 V 1068 H -1016 Z"
         id="path16310"
         inkscape:connector-curvature="0" /></clipPath><clipPath
       clipPathUnits="userSpaceOnUse"
       id="clipPath16324"><path
         d="M 57.640865,126.2987 H 397.2918 v 65.69947 H 57.640865 Z"
         id="path16322"
         inkscape:connector-curvature="0" /></clipPath><clipPath
       clipPathUnits="userSpaceOnUse"
       id="clipPath16402"><path
         d="M -1021,-463 H 1794 V 1233 H -1021 Z"
         id="path16400"
         inkscape:connector-curvature="0" /></clipPath><clipPath
       clipPathUnits="userSpaceOnUse"
       id="clipPath16422"><path
         d="M -1021,-463 H 1794 V 1233 H -1021 Z"
         id="path16420"
         inkscape:connector-curvature="0" /></clipPath><clipPath
       clipPathUnits="userSpaceOnUse"
       id="clipPath16440"><path
         d="M -1016,-351 H 1660 V 1068 H -1016 Z"
         id="path16438"
         inkscape:connector-curvature="0" /></clipPath><clipPath
       clipPathUnits="userSpaceOnUse"
       id="clipPath16452"><path
         d="M 57.640865,35.297115 H 397.2918 V 100.99659 H 57.640865 Z"
         id="path16450"
         inkscape:connector-curvature="0" /></clipPath></defs><sodipodi:namedview
     pagecolor="#ffffff"
     bordercolor="#666666"
     borderopacity="1"
     objecttolerance="10"
     gridtolerance="10"
     guidetolerance="10"
     inkscape:pageopacity="0"
     inkscape:pageshadow="2"
     inkscape:window-width="1680"
     inkscape:window-height="1028"
     id="namedview16072"
     showgrid="false"
     inkscape:zoom="1.8554685"
     inkscape:cx="244.17937"
     inkscape:cy="283.1407"
     inkscape:window-x="0"
     inkscape:window-y="0"
     inkscape:window-maximized="0"
     inkscape:current-layer="g16078"
     fit-margin-top="0"
     fit-margin-left="0"
     fit-margin-right="0"
     fit-margin-bottom="0" /><g
     id="g16078"
     inkscape:groupmode="layer"
     inkscape:label="Tilt_Examples"
     transform="matrix(1.3333333,0,0,-1.3333333,-4.0107366,378.01928)"><path
       d="m 57.640865,216.59053 v -3.5"
       style="fill:#000000;fill-opacity:1;fill-rule:nonzero;stroke:#000000;stroke-width:0.80000001;stroke-linecap:butt;stroke-linejoin:round;stroke-miterlimit:10;stroke-dasharray:none;stroke-opacity:1"
       id="path16084"
       inkscape:connector-curvature="0" /><text
       transform="matrix(1,0,0,-1,54.461177,201.99678)"
       style="font-variant:normal;font-weight:normal;font-size:10px;font-family:DejaVuSans;-inkscape-font-specification:DejaVuSans;writing-mode:lr-tb;fill:#000000;fill-opacity:1;fill-rule:nonzero;stroke:none"
       id="text16088"><tspan
         x="0"
         y="0"
         id="tspan16086">0</tspan></text>
<path
       d="m 128.40148,216.59053 v -3.5"
       style="fill:#000000;fill-opacity:1;fill-rule:nonzero;stroke:#000000;stroke-width:0.80000001;stroke-linecap:butt;stroke-linejoin:round;stroke-miterlimit:10;stroke-dasharray:none;stroke-opacity:1"
       id="path16090"
       inkscape:connector-curvature="0" /><text
       transform="matrix(1,0,0,-1,122.0421,201.99678)"
       style="font-variant:normal;font-weight:normal;font-size:10px;font-family:DejaVuSans;-inkscape-font-specification:DejaVuSans;writing-mode:lr-tb;fill:#000000;fill-opacity:1;fill-rule:nonzero;stroke:none"
       id="text16094"><tspan
         x="0 6.3600001"
         y="0"
         sodipodi:role="line"
         id="tspan16092">20</tspan></text>
<path
       d="m 199.16209,216.59053 v -3.5"
       style="fill:#000000;fill-opacity:1;fill-rule:nonzero;stroke:#000000;stroke-width:0.80000001;stroke-linecap:butt;stroke-linejoin:round;stroke-miterlimit:10;stroke-dasharray:none;stroke-opacity:1"
       id="path16096"
       inkscape:connector-curvature="0" /><text
       transform="matrix(1,0,0,-1,192.80271,201.99678)"
       style="font-variant:normal;font-weight:normal;font-size:10px;font-family:DejaVuSans;-inkscape-font-specification:DejaVuSans;writing-mode:lr-tb;fill:#000000;fill-opacity:1;fill-rule:nonzero;stroke:none"
       id="text16100"><tspan
         x="0 6.3600001"
         y="0"
         sodipodi:role="line"
         id="tspan16098">40</tspan></text>
<path
       d="m 269.9227,216.59053 v -3.5"
       style="fill:#000000;fill-opacity:1;fill-rule:nonzero;stroke:#000000;stroke-width:0.80000001;stroke-linecap:butt;stroke-linejoin:round;stroke-miterlimit:10;stroke-dasharray:none;stroke-opacity:1"
       id="path16102"
       inkscape:connector-curvature="0" /><text
       transform="matrix(1,0,0,-1,263.56332,201.99678)"
       style="font-variant:normal;font-weight:normal;font-size:10px;font-family:DejaVuSans;-inkscape-font-specification:DejaVuSans;writing-mode:lr-tb;fill:#000000;fill-opacity:1;fill-rule:nonzero;stroke:none"
       id="text16106"><tspan
         x="0 6.3600001"
         y="0"
         sodipodi:role="line"
         id="tspan16104">60</tspan></text>
<path
       d="m 340.68331,216.59053 v -3.5"
       style="fill:#000000;fill-opacity:1;fill-rule:nonzero;stroke:#000000;stroke-width:0.80000001;stroke-linecap:butt;stroke-linejoin:round;stroke-miterlimit:10;stroke-dasharray:none;stroke-opacity:1"
       id="path16108"
       inkscape:connector-curvature="0" /><text
       transform="matrix(1,0,0,-1,334.32393,201.99678)"
       style="font-variant:normal;font-weight:normal;font-size:10px;font-family:DejaVuSans;-inkscape-font-specification:DejaVuSans;writing-mode:lr-tb;fill:#000000;fill-opacity:1;fill-rule:nonzero;stroke:none"
       id="text16112"><tspan
         x="0 6.3600001"
         y="0"
         sodipodi:role="line"
         id="tspan16110">80</tspan></text>
<path
       d="m 57.640865,231.55989 h -3.5"
       style="fill:#000000;fill-opacity:1;fill-rule:nonzero;stroke:#000000;stroke-width:0.80000001;stroke-linecap:butt;stroke-linejoin:round;stroke-miterlimit:10;stroke-dasharray:none;stroke-opacity:1"
       id="path16114"
       inkscape:connector-curvature="0" /><text
       id="text16120"
       style="font-variant:normal;font-weight:normal;font-size:10px;font-family:DejaVuSans;-inkscape-font-specification:DejaVuSans;writing-mode:lr-tb;fill:#000000;fill-opacity:1;fill-rule:nonzero;stroke:none"
       transform="scale(1,-1)"
       x="31.566647"
       y="-227.76302"><tspan
         id="tspan16118"
         sodipodi:role="line"
         y="-227.76302"
         x="31.566647 37.926647 44.286648">500</tspan></text>
<g
       transform="matrix(0.01,0,0,0.01,23.18774,227.76302)"
       id="g16122"><g
         id="g16124"><g
           clip-path="url(#clipPath16130)"
           id="g16126"><path
             inkscape:connector-curvature="0"
             id="path16132"
             style="fill:#000000;fill-opacity:1;fill-rule:nonzero;stroke:none"
             d="M 106,355 H 732 V 272 H 106 v 83" /></g></g></g><path
       d="m 57.640865,255.39728 h -3.5"
       style="fill:#000000;fill-opacity:1;fill-rule:nonzero;stroke:#000000;stroke-width:0.80000001;stroke-linecap:butt;stroke-linejoin:round;stroke-miterlimit:10;stroke-dasharray:none;stroke-opacity:1"
       id="path16134"
       inkscape:connector-curvature="0" /><text
       id="text16140"
       style="font-variant:normal;font-weight:normal;font-size:10px;font-family:DejaVuSans;-inkscape-font-specification:DejaVuSans;writing-mode:lr-tb;fill:#000000;fill-opacity:1;fill-rule:nonzero;stroke:none"
       transform="scale(1,-1)"
       x="31.566647"
       y="-251.6004"><tspan
         id="tspan16138"
         sodipodi:role="line"
         y="-251.6004"
         x="31.566647 37.926647 44.286648">250</tspan></text>
<g
       transform="matrix(0.01,0,0,0.01,23.18774,251.60041)"
       id="g16142"><g
         id="g16144"><g
           clip-path="url(#clipPath16150)"
           id="g16146"><path
             inkscape:connector-curvature="0"
             id="path16152"
             style="fill:#000000;fill-opacity:1;fill-rule:nonzero;stroke:none"
             d="M 106,355 H 732 V 272 H 106 v 83" /></g></g></g><path
       d="m 57.640865,279.23468 h -3.5"
       style="fill:#000000;fill-opacity:1;fill-rule:nonzero;stroke:#000000;stroke-width:0.80000001;stroke-linecap:butt;stroke-linejoin:round;stroke-miterlimit:10;stroke-dasharray:none;stroke-opacity:1"
       id="path16154"
       inkscape:connector-curvature="0" /><text
       transform="matrix(1,0,0,-1,44.28149,275.4378)"
       style="font-variant:normal;font-weight:normal;font-size:10px;font-family:DejaVuSans;-inkscape-font-specification:DejaVuSans;writing-mode:lr-tb;fill:#000000;fill-opacity:1;fill-rule:nonzero;stroke:none"
       id="text16158"><tspan
         x="0"
         y="0"
         id="tspan16156">0</tspan></text>
<text
       id="text16164"
       style="font-variant:normal;font-weight:normal;font-size:12px;font-family:DejaVuSans;-inkscape-font-specification:DejaVuSans;writing-mode:lr-tb;fill:#000000;fill-opacity:1;fill-rule:nonzero;stroke:none"
       transform="matrix(0,1,1,0,0,0)"
       x="212.44026"
       y="13.62524"><tspan
         id="tspan16162"
         sodipodi:role="line"
         y="13.62524"
         x="212.44026 221.22346 233.0887 242.32893 246.14339 258.45978 263.39337 270.74689 278.36407">UWD [rad]</tspan></text>
<g
       transform="matrix(0,0.012,-0.012,0,13.62524,250.82503)"
       id="g16166"><g
         id="g16168"><g
           clip-path="url(#clipPath16174)"
           id="g16170"><g
             id="g16176"><path
               inkscape:connector-curvature="0"
               id="path16178"
               style="fill:#000000;fill-opacity:1;fill-rule:nonzero;stroke:none"
               d="m -12,-207 146,754 h 90 L 158,207 c -2,-8 -3,-16 -4,-24 -1,-8 -1,-17 -1,-25 0,-30 9,-54 28,-70 19,-16 46,-24 82,-24 48,0 86,13 116,41 30,27 50,68 61,123 l 62,319 h 90 L 510,126 c -2,-6 -3,-12 -3,-16 0,-4 0,-8 0,-12 0,-10 2,-18 6,-22 4,-5 10,-7 19,-7 3,0 7,0 13,2 6,2 14,5 25,9 L 556,8 C 542,1 528,-3 515,-7 c -13,-4 -26,-6 -38,-6 -22,0 -39,7 -51,20 C 414,20 408,39 408,63 390,37 368,17 343,5 317,-7 288,-13 254,-13 223,-13 196,-6 174,7 152,21 137,39 130,62 L 77,-207 h -89" /></g></g></g></g><rect
       style="fill:#b6f9a7;fill-opacity:1;stroke:#ffffff;stroke-width:0;stroke-miterlimit:4;stroke-dasharray:none;stroke-dashoffset:0;stroke-opacity:0.66666667"
       id="rect17275"
       width="5.3147259"
       height="65.424271"
       x="143.99612"
       y="-282.76144"
       transform="scale(1,-1)" /><g
       clip-path="url(#clipPath16186)"
       id="g16182"><path
         inkscape:connector-curvature="0"
         id="path16188"
         style="fill:none;stroke:#1f77b4;stroke-width:1.5;stroke-linecap:square;stroke-linejoin:round;stroke-miterlimit:10;stroke-dasharray:none;stroke-opacity:1"
         d="m 57.640865,279.23253 1.727247,0.0661 1.931175,-0.0274 2.415197,-0.0991 2.877107,-0.32887 4.805825,-0.79612 0.03194,0.11695 0.0516,-0.24687 0.235868,-1.06766 0.09091,0.0576 0.176902,-0.004 1.447152,-0.50491 0.641268,-0.33007 0.950846,-0.33485 0.665838,-0.31977 0.277637,-0.14527 2.041738,-0.98283 1.705135,-0.77044 0.04668,0.0403 0.04423,-0.10421 0.174445,-0.12812 4.034337,-1.85261 0.346433,-0.16388 2.555244,-1.13396 1.469265,-0.71577 0.334148,-0.0478 1.049124,-0.46301 2.420111,-1.02937 0.29975,-0.0785 0.734633,-0.34073 1.130204,-0.59532 0.211299,-0.34725 1.687935,-0.70775 0.584758,-0.19757 3.771444,-1.73557 1.07124,-0.35664 0.11056,-0.0635 0.3366,-0.16669 2.37098,-0.98154 0.0393,0.0276 0.0418,-0.0966 0.14742,-0.0664 0.53561,-0.24097 0.81326,-0.31236 0.3366,-0.031 0.0909,0.0536 0.0418,-0.027 0.31695,-0.10732 0.81817,-0.30999 0.38083,-0.0486 0.67566,-0.0142 0.47665,-0.15662 1.49384,-0.45769 0.40786,-0.18317 0.31203,0.0615 1.35625,-0.64585 0.36117,-0.17392 0.2113,-0.10185 0.0246,0.0964 0.0663,0.62351 0.0639,-0.48989 0.1425,-0.18336 0.96559,-0.80738 0.1597,-0.11591 0.0246,-0.005 0.027,0.096 0.11548,1.37897 0.14741,-0.26752 0.49385,-0.34765 0.6683,-0.36216 0.0221,0.0828 0.11056,1.01334 0.12285,-0.21352 0.46191,-0.35896 1.61914,-0.79816 4.13753,-1.49406 0.0246,0.14909 0.10811,1.28725 0.10811,-0.21079 0.37345,-0.30904 0.84766,-0.44302 0.90416,-0.33185 0.0197,0.0915 0.10319,0.76484 0.0983,-0.14034 0.4054,-0.28317 1.39064,-0.61551 0.90416,-0.36937 0.0246,0.12952 0.10565,1.04611 0.10319,-0.17833 0.38313,-0.29119 0.86239,-0.43209 0.457,-0.19112 0.0196,0.0791 0.10811,0.84202 0.11056,-0.16936 0.44471,-0.326 1.26776,-0.58126 0.54299,-0.21124 0.0221,0.10478 0.10811,0.95572 0.10565,-0.17139 0.39065,-0.30617 1.02456,-0.49395 1.57491,-0.58156 0.42997,-0.23146 0.26781,-0.0776 0.13022,-0.0507 0.0811,-0.0614 0.0295,0.091 0.11302,0.94585 0.12285,-0.16664 0.64618,-0.41169 1.45203,-0.57686 0.40786,-0.18287 0.054,-0.0585 0.0295,0.11219 0.34889,2.42894 0.0467,-0.0552 0.42964,-0.43264 0.69196,-0.34349 1.79113,-0.76974 0.15724,-0.14273 0.1941,-0.0815 0.0246,0.11826 0.0639,0.27313 0.0737,-0.0964 0.28992,-0.16772 0.99753,-0.43929 0.38575,-0.27308 0.26535,-0.22414 0.0197,0.0322 0.0688,0.25663 0.0663,-0.20596 0.16461,-0.11596 0.22359,-0.19224 0.0712,-0.11345 0.0295,0.15316 0.0688,2.111 0.0319,0.49922 0.0762,-0.53182 0.15478,-0.18809 0.17936,-0.14406 0.027,0.11283 0.11548,1.46668 0.13759,-0.30945 0.50613,-0.53999 0.49139,-0.29167 0.0295,0.0872 0.0786,0.24269 0.0688,-0.0818 0.41277,-0.38171 0.70023,-0.38917 0.0172,0.0444 0.10319,0.45989 0.10074,-0.11313 0.47911,-0.30208 0.80834,-0.35996 0.30466,-0.10011 1.67811,-0.58529 0.27272,-0.10857 0.23587,0.0813 0.059,-0.0219 0.0246,-0.0597 0.18427,-0.14193 0.94102,-0.51849 0.16707,-0.33454 0.23587,-0.13838 0.01,0.0105 0.0737,0.10018 0.0712,-0.0844 0.28992,-0.15556 0.0344,-0.0527 0.007,-0.0374 0.17936,-0.38888 0.0712,-0.0306 0.0442,0.0573 0.0221,0.003 0.0344,-0.0975 0.14496,-0.24127 0.0246,0.046 0.059,0.72455 0.0467,0.46143 0.0786,-0.1932 0.21376,-0.0816 0.0418,0.0165 0.0344,-0.0946 0.0958,-0.1298 0.0467,0.0457 0.0221,0.009 0.0418,-0.0958 0.20392,-0.19433 0.18673,0.0122 0.0467,-0.10471 0.0663,-0.10944 0.054,0.0938 0.0319,0.0398 0.0688,-0.0797 0.27764,-0.11283 0.005,0.007 0.059,0.31463 0.027,0.15757 0.0565,-0.38382 0.0663,-0.16442 0.0663,0.0371 0.3317,-0.30834 0.0737,0.0759 0.18428,-0.32194 0.10073,-0.007 0.0221,0.057 0.0418,0.11417 0.0442,-0.21158 0.14005,-0.40731 0.0221,0.11761 0.0516,2.07452 0.0762,3.29566 0.0712,-0.52177 0.19165,-0.47502 0.42505,-0.49299 1.18672,-0.91877 0.99507,-0.79105 0.18918,-0.48395 0.65356,-0.46628 0.13267,-0.0792 0.0197,0.0197 0.0639,0.18959 0.0516,-0.2109 0.15234,-0.15187 0.53807,-0.41325 0.0369,-0.10907 0.0319,0.24976 0.0639,3.4842 0.0565,1.72406 0.0712,-0.42273 0.20639,-0.40688 0.61669,-0.99314 0.71252,-0.69534 1.58475,-1.01931 1.34887,-0.83992 0.42014,-0.42111 0.19803,-0.0605 0.0737,-0.13434 0.19656,-0.44573 0.53562,-0.22443 0.0418,-0.10564 0.16216,-0.17042 0.13513,-0.0868 0.23833,-0.18964 0.0712,-0.022 0.0368,0.068 0.0786,0.16677 0.0614,-0.11859 0.17199,-0.0586 0.0983,-0.11119 0.0295,-0.009 0.0368,0.0963 0.0369,0.11215 0.0614,-0.16424 0.10319,-0.42258 0.0319,0.32088 0.0713,4.4767 0.0467,1.25215 0.0737,-0.61187 0.22113,-0.79118 0.46436,-0.89098 0.71498,-0.8366 1.02455,-0.91263 0.50368,-0.35017 0.15971,-0.12443 0.98524,-0.47302 0.49876,-0.37562 0.77395,-0.43801 0.027,-0.005 0.0369,-0.0809 0.24569,-0.23295 0.65356,-0.49748 0.14496,-0.19261 0.0614,-0.11012 0.0344,0.16208 0.0639,1.92999 0.0541,1.12989 0.0737,-0.34281 0.0418,-0.0768 0.0491,0.15154 0.0197,0.0545 0.0393,-0.28439 0.16216,-0.48585 0.10073,-0.39888 0.027,-0.10652 0.0295,0.37824 0.0639,5.39658 0.059,2.80309 0.0713,-0.71018 0.20639,-0.79296 0.41277,-0.88154 0.74692,-1.07421 1.0786,-1.30461 0.17936,-0.3181 1.64371,-1.41889 0.007,0.009 0.0442,0.0519 0.027,-0.12033 0.20392,-0.82944 0.58722,-0.88934 0.0467,-0.26419 0.0319,0.40983 0.0639,5.78985 0.059,2.97688 0.0688,-0.82076 0.20639,-1.03886 0.36117,-0.92719 0.50368,-0.94239 1.0737,-1.33265 1.12283,-1.43766 0.68795,-1.22526 0.0344,0.0568 0.086,0.1276 0.0246,-0.14429 0.1769,-0.67601 0.70761,-1.5184 0.0368,-0.21582 0.0319,0.49572 0.0737,7.15669 0.0467,1.8244 0.0737,-0.77999 0.21376,-0.98105 0.50122,-1.42456 0.43734,-0.86158 1.07861,-1.31215 0.14987,-0.30238 0.1941,-0.28886 0.8452,-1.17117 0.0614,0.24801 0.01,0.0207 0.0319,-0.26079 0.16462,-0.71547 0.37837,-0.68773 0.0884,-0.0924 0.1941,-0.36991 0.1941,-0.26999 0.01,0.005 0.0418,0.011 0.027,-0.0932 0.24323,-0.66248 0.0123,-0.0124 0.0246,0.16915 0.0614,2.68817 0.0565,1.58427 0.0713,-0.43637 0.24324,-0.67803 0.50122,-0.91564 0.0197,0.0228 0.0393,0.0712 0.0418,-0.14646 0.1597,-0.20373 0.0762,-0.1323 0.32678,-0.31466 0.27763,-0.39417 0.16462,-0.38713 0.21376,-0.28325 0.50859,-0.50094 0.0467,0.0811 0.0393,0.0792 0.0369,-0.16793 0.059,-0.17696 0.0688,0.0845 0.30712,-0.52706 0.0246,0.0569 0.0491,0.23146 0.0565,-0.26481 0.18673,-0.34667 0.18918,-0.42637 0.027,0.28471 0.11056,4.77825 0.15725,-0.95708 0.55773,-1.0187 1.18672,-1.56141 0.086,-0.15816 0.24078,-0.31773 0.1032,-0.14641 0.25061,-0.32596 0.0614,-0.11838 0.1597,-0.39428 0.027,0.20026 0.0663,3.03082 0.0491,1.36936 0.0737,-0.57086 0.21375,-0.68242 0.50614,-0.96199 0.86485,-1.18436 0.0958,-0.20587 0.55773,-0.86736 0.027,0.0532 0.054,0.25111 0.054,-0.26111 0.27273,-0.76285 0.31449,-0.36089 0.0639,-0.10841 0.0344,-0.0418 0.0442,0.13817 0.0319,0.12622 0.0516,-0.28043 0.11793,-0.42429 0.0319,0.15754 0.0614,2.08653 0.0614,1.7767 0.0737,-0.43577 0.371,-1.40474 0.0172,0.0957 0.0467,2.08908 0.086,5.04017 0.0762,-0.58919 0.23832,-0.699 0.56019,-0.99936 1.06632,-1.85065 0.77395,-1.32244 0.0442,0.0963 0.0221,0.044 0.0565,-0.15945 0.0811,-0.46861 0.0467,-0.22106 0.0319,0.36867 0.11302,5.7731 0.16216,-1.09697 0.44962,-1.21649 0.79606,-1.3434 0.34643,-0.67255 0.23833,-0.45594 0.45699,-0.77959 0.005,0.003 0.0737,0.19436 0.0221,0.0659 0.0418,-0.29843 0.16461,-0.48768 0.82063,-1.3548 0.0762,-0.49243 0.0368,0.47436 0.11056,6.09791 0.14742,-1.07666 0.42751,-1.18323 0.61424,-1.09299 0.78869,-1.38473 0.1769,-0.48584 0.0246,0.0394 0.10319,0.35795 0.0393,-0.23827 0.16216,-0.55936 0.1769,-0.29345 0.0295,0.0271 0.0246,0.0117 0.0295,-0.10701 0.1941,-0.41616 0.16216,-0.22257 0.0418,0.21062 0.0319,0.18056 0.0516,-0.39278 0.11548,-0.62868 0.0295,0.29398 0.0614,4.17138 0.0565,2.5096 0.0713,-0.74134 0.21375,-0.90147 0.47911,-1.19396 0.95822,-1.685 0.12776,-0.25008 0.23341,-0.38279 0.23341,-0.4431 0.20148,-0.32321 0.14004,-0.11252 0.13022,-0.30198 0.027,0.0234 0.0344,0.0379 0.0393,-0.11607 0.17444,-0.31927 0.0147,0.0114 0.0319,0.0353 0.0344,-0.12264 0.0835,-0.22081 0.0614,0.062 0.0516,-0.23384 0.17444,-0.41728 0.0934,-0.10829 0.0835,-0.23848 0.0491,0.16916 0.0221,0.0655 0.0442,-0.26428 0.13759,-0.41906 0.0172,0.0387 0.0418,0.89124 0.0762,2.60107 0.0811,-0.54738 0.23833,-0.68258 0.2285,-0.65195 0.0344,-0.24372 0.0368,0.63535 0.11548,7.69699 0.1425,-1.18082 0.42751,-1.28175 0.82554,-1.65594 0.89188,-1.72169 0.37592,-0.64388 0.18181,-0.21712 0.0369,0.10143 0.0221,0.0592 0.0541,-0.20363 0.18428,-0.60677 0.0246,0.20615 0.054,3.46033 0.0713,4.18034 0.0688,-0.74851 0.21375,-1.08588 0.49631,-1.38654 1.15723,-2.37842 0.11056,-0.39196 0.059,-0.0798 0.0467,0.10521 0.0246,0.0601 0.0516,-0.18665 0.28255,-0.64257 0.0246,0.001 0.0344,0.0856 0.0246,0.0575 0.0442,-0.20217 0.17199,-0.63578 0.0246,0.19028 0.059,3.05865 0.0688,3.25518 0.0712,-0.72888 0.19902,-0.85778 0.4226,-0.86068 0.29975,-0.50521 1.41275,-2.63646 0.0786,-0.14116 0.0639,-0.17862 0.0491,0.16488 0.0221,0.0795 0.0442,-0.31175 0.15971,-0.42243 0.10565,-0.21793 0.054,0.0594 0.0958,-0.0976 0.28255,-0.95663 0.0295,0.36658 0.0688,5.50518 0.0491,1.88178 0.0737,-0.80908 0.23095,-1.1887 0.42014,-1.0812 1.24077,-2.44334 0.0344,0.0531 0.027,0.0405 0.0418,-0.15578 0.23832,-0.55168 0.48402,-0.64431 0.0565,0.17462 0.0197,0.0359 0.0491,-0.18359 0.22358,-0.47385 0.0762,-0.31083 0.0344,0.32662 0.0639,3.92169 0.059,2.34423 0.0713,-0.63089 0.23341,-0.9399 0.57247,-1.49843 0.88942,-1.51421 0.54299,-0.96546 0.0442,0.13469 0.0319,0.0933 0.0565,-0.20751 0.22112,-0.40302 0.0147,0.009 0.0516,0.0748 0.0344,-0.13937 0.11302,-0.31228 0.0393,0.0666 0.054,0.1937 0.0467,-0.24007 0.18427,-0.41475 0.0737,-0.20585 0.0319,0.21167 0.054,2.82436 0.0663,3.09857 0.0712,-0.71476 0.23096,-0.97717 0.42014,-0.88483 1.35624,-2.33602 0.23341,-0.42767 0.0246,0.005 0.0295,0.0865 0.0319,0.10158 0.0541,-0.2123 0.18427,-0.26774 0.1941,-0.19159 0.15234,-0.28237 0.0393,0.16648 0.0516,0.41564 0.0491,-0.49655 0.15234,-0.4888 0.29975,-0.42806 0.0221,0.0169 0.0688,0.16367 0.0393,-0.20127 0.16462,-0.32402 0.0737,-0.10082 0.11056,-0.0886 0.0221,0.0661 0.0737,0.53622 0.0934,-0.20443 0.0369,0.0104 0.0246,0.0774 0.0319,0.11431 0.0541,-0.22793 0.0737,-0.30138 0.0418,0.27946 0.0639,0.86545 0.0639,-0.56835 0.0639,-0.50893 0.0368,0.59491 0.10811,6.47032 0.13513,-1.07013 0.41032,-1.08351 0.88205,-1.64063 0.61915,-0.92495 0.29975,-0.48469 0.0221,0.0346 0.0614,0.24914 0.0368,-0.27283 0.15479,-0.49234 0.0737,-0.12294 0.26044,-0.37865 0.14987,-0.0145 0.0246,0.0367 0.0172,0.0657 0.0123,0.0226 0.0418,-0.19841 0.18181,-0.42505 0.27518,-0.36134 0.0467,0.10674 0.0246,0.0453 0.0418,-0.18309 0.23833,-0.6742 0.054,-0.0963 0.16462,-0.53237 0.0246,0.23692 0.059,3.74047 0.0565,2.59318 0.0737,-0.80283 0.20885,-0.88798 0.62161,-1.38389 1.38818,-2.34894 0.0246,0.043 0.0467,0.18185 0.0393,-0.26823 0.16707,-0.53 0.19901,-0.20588 0.027,0.0152 0.0246,0.0767 0.0172,0.0317 0.0491,-0.19277 0.15724,-0.51207 0.0295,0.15719 0.0541,2.27791 0.0639,2.8939 0.0737,-0.70631 0.2285,-0.88979 0.71498,-1.32298 0.27518,-0.50483 0.12776,-0.33875 0.0393,0.12539 0.0319,0.14185 0.0516,-0.29422 0.16461,-0.3809 0.18673,-0.23528 0.007,0.004 0.0295,0.012 0.0295,-0.10162 0.23587,-0.71489 0.0246,0.049 0.0663,0.38536 0.0467,-0.37259 0.10074,-0.44032 0.0516,0.0751 0.0786,-0.0929 0.0565,-0.13144 0.0737,0.0809 0.0197,0.0179 0.0295,-0.14548 0.13268,-0.34772 0.0221,0.0253 0.0319,0.0524 0.0418,-0.14455 0.35872,-0.8707 0.0246,0.116 0.0467,1.73121 0.0835,5.15145 0.0811,-0.87842 0.20147,-0.7399 0.68549,-1.45591 1.14986,-2.23111 0.0516,0.15434 0.0172,0.0376 0.0418,-0.22858 0.14988,-0.25026 0.0663,-0.19248 0.0467,0.18034 0.0369,0.22145 0.0442,-0.43689 0.15725,-0.55384 0.11793,0.0485 0.0147,0.002 0.0344,-0.10505 0.24324,-0.55331 0.11548,-0.19705 0.16216,-0.67168 0.0491,-0.1762 0.0418,-0.28523 0.0369,0.53187 0.0909,7.10782 0.0344,0.83129 0.0762,-0.84997 0.2113,-0.93843 0.55036,-1.38228 0.86976,-1.89172 0.059,0.22041 0.0172,0.0513 0.0393,-0.3251 0.15725,-0.50021 0.0835,-0.14642 0.18673,-0.42801 0.007,0.003 0.0491,0.0223 0.0246,-0.10157 0.0811,-0.35815 0.0491,0.22784 0.0344,0.21167 0.0491,-0.41814 0.13759,-0.22167 0.0786,-0.12335 0.0418,-0.12541 0.0565,0.19657 0.0147,0.0284 0.0369,-0.23534 0.17444,-0.55593 0.0786,-0.3013 0.0491,0.27249 0.0246,0.12919 0.0418,-0.46453 0.0688,-0.60681 0.0639,0.26286 0.0221,-0.11026 0.0663,-0.52375 0.0614,0.35465 0.005,0.003 0.0221,-0.13382 0.17445,-0.73812 0.005,0.002 0.027,0.01 0.0319,-0.10107 0.0295,-0.0807 0.0442,0.22723 0.0123,0.0403 0.0418,-0.35053 0.0393,-0.19163 0.0762,0.13146 0.0221,0.0737 0.0467,-0.28415 0.0884,-0.23288 0.0197,0.19099 0.0491,3.78391 0.0762,5.8177 0.0713,-0.94953 0.20393,-1.07922 0.42997,-1.14725 1.7813,-3.94444 0.1769,-0.74713 0.0442,-0.0797 0.0491,0.13799 0.0319,0.16266 0.0393,-0.38257 0.10565,-0.54896 0.0393,0.0963 0.0295,0.0882 0.0491,-0.22338 0.18919,-0.54818 0.0295,0.0112 0.0246,0.0834 0.0393,0.20697 0.0442,-0.37954 0.12039,-0.52823 0.0295,0.10544 0.0393,0.24691 0.0442,-0.4267 0.0467,-0.24617 0.0516,0.38927 0.0344,0.34434 0.0541,-0.61568 0.0934,-0.49013 0.0663,0.064 0.0884,0.1812 0.0246,0.10285 0.0393,-0.35655 0.0442,-0.27054 0.059,0.34162 0.0295,0.11713 0.0467,-0.37654 0.0123,-0.0456 0.027,0.5034 0.10319,6.78027 0.13513,-1.07362 0.46437,-1.09333 1.38327,-2.57762 0.2629,-0.56598 0.14987,-0.3164 0.0516,0.21447 0.0246,0.10251 0.0393,-0.40487 0.1597,-0.7382 0.0246,-4.5e-4 0.0393,0.0879 0.0147,0.0177 0.0442,-0.15043 0.01,-0.004 0.0295,0.13124 0.0246,0.10389 0.0467,-0.3471 0.1941,-1.07352 0.0295,0.0701 0.0639,0.56594 0.0467,-0.53726 0.0934,-0.36904 0.0418,0.0729 0.13268,0.15855 -0.059,-0.21754 0.0713,0.15568 0.0639,-0.62987 0.0688,0.43347 0.19164,-1.10615 0.0319,0.55026 0.10565,7.01561 0.14005,-1.29126 0.45208,-0.73164 0.0614,-0.12342 0.21129,-0.32793 0.086,-0.18627 0.22604,-0.3867 0.30466,-0.57091 0.25553,-0.69328 0.0811,-0.14245 0.0418,0.1249 0.0393,0.19971 0.0393,-0.38865 0.13513,-0.67411 0.0246,0.0278 0.0442,0.0711 0.0712,-0.0759 0.1597,-0.67881 0.0712,0.12918 0.0295,-0.10595 0.14742,-0.22304 0.0737,-0.20259 0.0393,0.19121 0.0614,0.65599 0.0393,-0.72569 0.0688,-0.77852 0.0639,0.21528 0.007,0.002 0.0246,-0.12057 0.14987,-0.41756 0.0147,0.0169 0.0614,0.31507 0.0344,-0.36463 0.0418,-0.38389 0.0541,0.55536 0.0197,0.18516 0.0516,-0.72169 0.14496,-0.49597 0.0221,0.006 0.0246,0.085 0.059,0.42591 0.0442,-0.45179 0.0516,-0.40572 0.0516,0.4705 0.0295,0.32725 0.0516,-0.78199 0.13513,-0.3891 0.0221,-0.0371 0.0442,0.17544 0.0516,0.47467 0.0467,-0.57213 0.13267,-0.31313 0.0737,-0.44763 0.0295,0.42357 0.0885,7.12133 0.0393,1.51304 0.0762,-0.99793 0.17935,-0.59537 0.48403,-0.83846 0.75183,-1.50556 0.65601,-1.75469 0.0639,0.11673 0.0344,0.0553 0.0344,-0.16549 0.17199,-0.46048 0.0147,-0.0209 0.0491,0.17085 0.002,4.5e-4 0.0221,-0.1792 0.17936,-1.13297 0.12531,-0.0709 0.0221,0.0794 0.0418,0.24649 0.0418,-0.41368 0.0663,-0.3823 0.0737,0.0191 0.0369,0.1193 0.0418,0.27085 0.0418,-0.42547 0.12285,-0.5402 0.0246,0.0476 0.0614,0.84625 0.0147,0.11971 0.0467,-0.75089 0.14496,-0.71389 0.005,0.001 0.0369,0.009 0.0196,-0.1025 0.39066,-2.48566 0.18182,-0.19134 0.34152,-0.43444 0.29237,-0.4162 0.0442,-0.18219 0.0295,0.33322 0.059,4.90947 0.0909,7.40224 0.0688,-0.75866 0.19656,-0.80103 0.53562,-1.23667 1.17443,-2.40694 0.28255,-0.52488 0.83045,-2.0086 0.10811,-0.35927 0.31695,-0.81609 0.0246,0.20516 0.0516,3.25108 0.0811,5.18971 0.0688,-0.7031 0.19901,-0.78498 0.49631,-1.09634 1.91152,-3.60449 0.27272,-0.86186 1.61669,-3.35391 0.0221,0.17998 0.0491,3.12568 0.0885,6.13645 0.0688,-0.56057 0.24815,-1.01428 0.44471,-0.84365 0.74938,-1.32866 0.40048,-0.60901 0.68304,-1.09014 1.23094,-2.24201 0.0221,0.14457 0.0516,2.40154 0.0762,3.61654 0.0712,-0.5226 0.23587,-0.80666 0.49385,-0.95359 1.9754,-3.25289 0.18427,-0.70545 0.26536,-0.37517 0.69286,-0.9782 0.12776,-0.34465 0.0393,-0.19429 0.0319,0.45894 0.0712,6.47468 0.0516,2.05137 0.0737,-0.69212 0.19656,-0.6537 0.66338,-1.33023 3.18423,-6.21998 0.0983,-0.22079 0.20147,-0.32944 0.25552,-0.72894 0.01,-0.0252 0.027,0.28188 0.0565,4.47605 0.0688,4.53741 0.0688,-0.85284 0.16953,-0.62679 0.61915,-1.33419 1.85256,-3.04359 0.58967,-0.94677 0.41522,-1.22076 0.56756,-0.92782 0.0516,-0.25472 0.0319,0.37559 0.0663,5.44166 0.0541,2.37196 0.0712,-0.80243 0.19656,-0.84732 0.48402,-1.12667 1.44961,-2.62321 0.2113,-0.29833 1.08598,-1.67943 0.20639,-1.35284 0.62406,-0.61719 0.2629,-0.40685 1.74936,-2.01529 0.054,-0.30764 0.0295,0.41516 0.0614,5.93272 0.0639,4.12202 0.0688,-0.82778 0.19655,-0.97744 0.41277,-0.9959 2.05648,-3.30274 0.42752,-0.66012 0.18918,-0.32336 0.13022,-0.23188 0.25061,-1.32632 0.0147,0.005 0.0639,0.047 0.0369,-0.11076 0.23587,-0.39851 0.23341,-0.38583 0.0369,-0.10591 0.0295,0.25236 0.0565,3.46029 0.002,0.24036 0.34888,0.23899 0.086,2.18213 0.11793,0.35856 0.027,0.31391 0.0762,-0.51179 0.21621,-0.51509 0.85994,-1.50708 0.33906,-0.63653 0.83782,-1.37583 0.33169,-0.47144 0.71252,-1.07714 0.26781,-0.53637 0.23833,-2.06611 0.0319,0.78125 0.11548,9.50011 0.14004,-1.09079 0.48894,-1.07393 3.53803,-6.60102 0.0369,-0.0206 0.0172,-0.0714 0.20639,-0.51488 0.0934,-0.22729 0.0835,-0.424 0.0295,0.37398 0.0614,5.48151 0.0639,3.77917 0.0688,-0.84004 0.20639,-1.04866 0.50859,-1.43427 0.59459,-1.13314 0.67075,-1.01248 0.26781,-0.40781 0.61178,-0.99342 0.20884,-0.93008 0.40049,-0.54661 0.9361,-0.91925 0.0663,-0.118 0.0639,-0.32498 0.0295,0.35183 0.0614,5.13076 0.0614,3.38871 0.0713,-0.79508 0.20638,-0.98111 0.48894,-1.08226 1.99997,-3.45262 0.15724,-0.29681 2.48891,-3.22781 0.0246,0.24277 0.054,3.95728 0.086,5.14972 0.0614,-0.6424 0.1941,-0.90794 0.47665,-1.14505 1.73216,-3.30594 0.18919,-0.35472 0.25307,-0.52363 0.2113,-0.4855 0.3882,-0.55015 1.62159,-2.24162 0.15234,-0.42164 0.3194,-0.60188 0.0295,0.31463 0.0614,4.64213 0.059,2.89888 0.0713,-0.76697 0.1941,-0.83045 0.37591,-0.66866 0.19656,-0.30287 2.46188,-4.04482 0.32432,-0.49185 0.14496,-0.15984 0.3882,-0.28857 0.17445,-0.1564 0.23587,-0.29308 0.16953,-0.42655 0.0688,-0.002 0.0295,0.0631 0.0369,0.0413 0.0688,-0.0734 0.96068,-1.18842 0.0147,-0.0299 0.027,0.29855 0.0565,4.33944 0.0713,4.7457 0.0688,-0.8508 0.19902,-1.02886 0.44225,-1.12175 0.80343,-1.3189 1.09089,-1.614 1.43733,-1.45756 0.0885,-0.0966 0.25798,-0.83134 0.34152,-0.27774 0.0909,-0.10102 0.2113,-0.42753 0.0197,0.1306 0.0491,2.41982 0.0835,4.95149 0.0737,-0.65938 0.20393,-0.74701 0.52334,-0.97431 1.01472,-1.47916 0.85748,-1.26715 0.1941,-0.72486 0.36855,-0.44375 0.10074,-0.16457 0.6904,-0.981 0.0737,-0.005 0.0221,-0.0707 0.18182,-0.21905 0.13022,-0.13621 0.18181,-0.13811 0.14251,-0.16506 0.0688,-0.23156 0.027,0.26466 0.0565,4.06356 0.0688,4.06777 0.0688,-0.80795 0.19656,-0.92829 0.40785,-0.91279 0.80343,-1.18202 1.92376,-2.4556 0.0394,0.0691 0.0221,0.0303 0.0319,-0.15128 0.17199,-0.25629 0.50859,-0.43135 0.1916,-0.0847 4e-5,9e-4 0.0638,-0.0933 4e-5,-0.002 0.3464,-0.19105 0.0295,0.0853 0.0172,0.0221 0.0221,-0.16662 0.16949,-1.10305 0.0271,0.0195 0.0393,0.0475 0.0271,-0.13023 0.20884,-0.23961 0.20143,-0.14215 0.11306,-0.14534 0.23096,-0.18537 0.0933,-0.0527 0.0295,0.0721 0.0221,0.026 0.032,-0.15145 0.12772,-0.14315 0.0271,0.0499 0.0369,0.15145 0.054,-0.1934 0.0123,0.003 0.14496,-0.0873 0.25798,-0.27702 0.027,-0.0224 0.0295,0.13353 0.0245,0.10996 0.0443,-0.30587 0.16216,-0.10451 0.19164,-0.14787 0.10315,-0.054 0.0197,0.0807 0.0394,0.31858 0.0663,-0.50788 0.002,10e-4 0.0491,0.13602 0.0614,-0.20616 0.0565,0.0694 0.0566,-0.13833 0.1253,-0.17268 0.0147,-0.15765 0.0172,0.68186 0.0369,7.45145 0.0245,2.0552 0.091,-1.46583 0.81325,-2.0042 0.15229,-0.28814 0.11306,-0.16625 0.13755,-0.22657 0.11306,-0.12779 0.12777,-0.21133 0.46682,-0.68424 0.16707,-0.25505 1.49875,-2.01761 0.0221,-0.1547 0.30467,-0.12106 0.17199,-0.13835 0.086,-0.004 0.0172,-0.0793 0.18919,-0.24012 0.0859,-0.16592 0.10078,-0.0907 0.01,0.005 0.0393,0.17434 0.0197,0.0861 0.0885,-0.52304 0.45945,-0.2845 0.16462,-0.13243 0.0909,-0.15153 0.0393,-0.21808 0.0246,0.38294 0.0467,4.86692 0.0467,2.89779 0.0811,-0.86979 0.31449,-0.9068 2.24813,-2.95137 0.0958,-0.17664 0.19164,-0.43319 0.50614,-0.50881 0.11793,-0.15962 0.57739,-0.63271 0.29238,-0.5872 0.33906,-0.37594 0.0418,-0.12938 0.0295,0.27009 0.0639,3.82264 0.0614,2.15464 0.0713,-0.37473 0.28255,-0.69115 0.59459,-0.98712 1.87466,-2.39384 0.20884,-0.31893 0.50368,-0.50465 0.35872,-0.38852 0.16216,-0.17276 0.10565,-0.10159 0.25798,-0.24877 0.47911,-0.3301 0.25552,-0.20926 0.0688,0.10816 0.0344,0.0555 0.0319,-0.19319 0.18673,-1.05063 0.15971,-0.17835 0.57738,-0.40003 0.0934,-0.9557 0.0369,0.63798 0.11548,8.28216 0.15233,-1.14295 0.3882,-0.97459 0.57985,-0.84418 2.34148,-3.03635 0.002,0.002 0.0688,0.0907 0.059,-0.12097 0.45946,-0.55137 0.0885,-0.0841 0.2113,-0.14403 0.27763,-0.17153 0.15479,-0.0474 0.0246,0.0945 0.0491,0.24214 0.0467,-0.30491 0.14742,-0.34123 0.54299,-0.25046 0.19656,-0.11567 0.0147,0.023 0.0639,0.2171 0.0442,-0.23771 0.11793,-0.28397 0.0319,0.0117 0.0516,0.005 0.0344,-0.0811 0.15971,-0.10907 0.005,0.003 0.11548,0.0414 0.027,-0.0788 0.16708,-0.18976 0.29975,-0.14135 0.57493,-0.48433 0.0221,0.17372 0.0541,2.8159 0.0762,4.01458 0.0713,-0.64065 0.21867,-0.82272 0.53316,-1.2318 0.74446,-0.87103 0.8108,-0.82626 0.40295,-0.35692 0.62898,-0.68444 0.19656,-0.10989 0.0958,-0.0816 0.17444,-0.52505 0.10565,-0.35169 0.0369,0.0153 0.059,0.0265 0.0369,-0.0861 0.1941,-0.17441 0.50859,-0.20489 0.0147,0.0283 0.0393,0.057 0.0418,-0.13388 0.15725,-0.17147 0.31695,0.004 0.0442,0.0785 0.0369,-0.15898 0.15233,-0.24276 1.20882,-0.31943 0.20148,-0.04 0.285,-0.0271 v 0" /></g><path
       inkscape:connector-curvature="0"
       id="path16192"
       style="fill:none;stroke:#000000;stroke-width:0.80000001;stroke-linecap:square;stroke-linejoin:miter;stroke-miterlimit:10;stroke-dasharray:none;stroke-opacity:1"
       d="M 57.640865,216.59053 V 282.29" /><path
       inkscape:connector-curvature="0"
       id="path16194"
       style="fill:none;stroke:#000000;stroke-width:0.80000001;stroke-linecap:square;stroke-linejoin:miter;stroke-miterlimit:10;stroke-dasharray:none;stroke-opacity:1"
       d="M 397.2918,216.59053 V 282.29" /><path
       inkscape:connector-curvature="0"
       id="path16196"
       style="fill:none;stroke:#000000;stroke-width:0.80000001;stroke-linecap:square;stroke-linejoin:miter;stroke-miterlimit:10;stroke-dasharray:none;stroke-opacity:1"
       d="M 57.640865,216.59053 H 397.2918" /><path
       inkscape:connector-curvature="0"
       id="path16198"
       style="fill:none;stroke:#000000;stroke-width:0.80000001;stroke-linecap:square;stroke-linejoin:miter;stroke-miterlimit:10;stroke-dasharray:none;stroke-opacity:1"
       d="M 57.640865,282.29 H 397.2918" /><path
       inkscape:connector-curvature="0"
       id="path16202"
       style="fill:#000000;fill-opacity:1;fill-rule:nonzero;stroke:#000000;stroke-width:0.80000001;stroke-linecap:butt;stroke-linejoin:round;stroke-miterlimit:10;stroke-dasharray:none;stroke-opacity:1"
       d="m 57.640865,126.2987 v -3.5" /><text
       id="text16206"
       style="font-variant:normal;font-weight:normal;font-size:10px;font-family:DejaVuSans;-inkscape-font-specification:DejaVuSans;writing-mode:lr-tb;fill:#000000;fill-opacity:1;fill-rule:nonzero;stroke:none"
       transform="scale(1,-1)"
       x="54.461178"
       y="-111.70495"><tspan
         id="tspan16204"
         y="-111.70495"
         x="54.461178">4</tspan></text>
<path
       inkscape:connector-curvature="0"
       id="path16208"
       style="fill:#000000;fill-opacity:1;fill-rule:nonzero;stroke:#000000;stroke-width:0.80000001;stroke-linecap:butt;stroke-linejoin:round;stroke-miterlimit:10;stroke-dasharray:none;stroke-opacity:1"
       d="m 122.33628,126.2987 v -3.5" /><text
       id="text16212"
       style="font-variant:normal;font-weight:normal;font-size:10px;font-family:DejaVuSans;-inkscape-font-specification:DejaVuSans;writing-mode:lr-tb;fill:#000000;fill-opacity:1;fill-rule:nonzero;stroke:none"
       transform="scale(1,-1)"
       x="119.15659"
       y="-111.70495"><tspan
         id="tspan16210"
         y="-111.70495"
         x="119.15659">6</tspan></text>
<path
       inkscape:connector-curvature="0"
       id="path16214"
       style="fill:#000000;fill-opacity:1;fill-rule:nonzero;stroke:#000000;stroke-width:0.80000001;stroke-linecap:butt;stroke-linejoin:round;stroke-miterlimit:10;stroke-dasharray:none;stroke-opacity:1"
       d="m 187.0317,126.2987 v -3.5" /><text
       id="text16218"
       style="font-variant:normal;font-weight:normal;font-size:10px;font-family:DejaVuSans;-inkscape-font-specification:DejaVuSans;writing-mode:lr-tb;fill:#000000;fill-opacity:1;fill-rule:nonzero;stroke:none"
       transform="scale(1,-1)"
       x="183.85201"
       y="-111.70495"><tspan
         id="tspan16216"
         y="-111.70495"
         x="183.85201">8</tspan></text>
<path
       inkscape:connector-curvature="0"
       id="path16220"
       style="fill:#000000;fill-opacity:1;fill-rule:nonzero;stroke:#000000;stroke-width:0.80000001;stroke-linecap:butt;stroke-linejoin:round;stroke-miterlimit:10;stroke-dasharray:none;stroke-opacity:1"
       d="m 251.72711,126.2987 v -3.5" /><text
       id="text16224"
       style="font-variant:normal;font-weight:normal;font-size:10px;font-family:DejaVuSans;-inkscape-font-specification:DejaVuSans;writing-mode:lr-tb;fill:#000000;fill-opacity:1;fill-rule:nonzero;stroke:none"
       transform="scale(1,-1)"
       x="245.36774"
       y="-111.70495"><tspan
         id="tspan16222"
         sodipodi:role="line"
         y="-111.70495"
         x="245.36774 251.72774">10</tspan></text>
<path
       inkscape:connector-curvature="0"
       id="path16226"
       style="fill:#000000;fill-opacity:1;fill-rule:nonzero;stroke:#000000;stroke-width:0.80000001;stroke-linecap:butt;stroke-linejoin:round;stroke-miterlimit:10;stroke-dasharray:none;stroke-opacity:1"
       d="m 316.42253,126.2987 v -3.5" /><text
       id="text16230"
       style="font-variant:normal;font-weight:normal;font-size:10px;font-family:DejaVuSans;-inkscape-font-specification:DejaVuSans;writing-mode:lr-tb;fill:#000000;fill-opacity:1;fill-rule:nonzero;stroke:none"
       transform="scale(1,-1)"
       x="310.06314"
       y="-111.70495"><tspan
         id="tspan16228"
         sodipodi:role="line"
         y="-111.70495"
         x="310.06314 316.42316">12</tspan></text>
<path
       inkscape:connector-curvature="0"
       id="path16232"
       style="fill:#000000;fill-opacity:1;fill-rule:nonzero;stroke:#000000;stroke-width:0.80000001;stroke-linecap:butt;stroke-linejoin:round;stroke-miterlimit:10;stroke-dasharray:none;stroke-opacity:1"
       d="m 381.11795,126.2987 v -3.5" /><text
       id="text16236"
       style="font-variant:normal;font-weight:normal;font-size:10px;font-family:DejaVuSans;-inkscape-font-specification:DejaVuSans;writing-mode:lr-tb;fill:#000000;fill-opacity:1;fill-rule:nonzero;stroke:none"
       transform="scale(1,-1)"
       x="374.75858"
       y="-111.70495"><tspan
         id="tspan16234"
         sodipodi:role="line"
         y="-111.70495"
         x="374.75858 381.11856">14</tspan></text>
<path
       inkscape:connector-curvature="0"
       id="path16238"
       style="fill:#000000;fill-opacity:1;fill-rule:nonzero;stroke:#000000;stroke-width:0.80000001;stroke-linecap:butt;stroke-linejoin:round;stroke-miterlimit:10;stroke-dasharray:none;stroke-opacity:1"
       d="m 57.640865,136.53758 h -3.5" /><g
       transform="translate(20.00024,132.7407)"
       id="g16240"><text
         id="text16244"
         style="font-variant:normal;font-weight:normal;font-size:10px;font-family:DejaVuSans;-inkscape-font-specification:DejaVuSans;writing-mode:lr-tb;fill:#000000;fill-opacity:1;fill-rule:nonzero;stroke:none"
         transform="matrix(1,0,0,-1,8.3789063,0)"><tspan
           id="tspan16242"
           sodipodi:role="line"
           y="0"
           x="0 6.3600001 9.54 15.9">0.75</tspan></text>
<g
         transform="scale(0.01)"
         id="g16246"><g
           id="g16248"><g
             clip-path="url(#clipPath16254)"
             id="g16250"><path
               inkscape:connector-curvature="0"
               id="path16256"
               style="fill:#000000;fill-opacity:1;fill-rule:nonzero;stroke:none"
               d="M 106,355 H 732 V 272 H 106 v 83" /></g></g></g></g><path
       inkscape:connector-curvature="0"
       id="path16258"
       style="fill:#000000;fill-opacity:1;fill-rule:nonzero;stroke:#000000;stroke-width:0.80000001;stroke-linecap:butt;stroke-linejoin:round;stroke-miterlimit:10;stroke-dasharray:none;stroke-opacity:1"
       d="m 57.640865,157.86858 h -3.5" /><g
       transform="translate(20.00024,154.0717)"
       id="g16260"><text
         id="text16264"
         style="font-variant:normal;font-weight:normal;font-size:10px;font-family:DejaVuSans;-inkscape-font-specification:DejaVuSans;writing-mode:lr-tb;fill:#000000;fill-opacity:1;fill-rule:nonzero;stroke:none"
         transform="matrix(1,0,0,-1,8.3789063,0)"><tspan
           id="tspan16262"
           sodipodi:role="line"
           y="0"
           x="0 6.3600001 9.54 15.9">0.50</tspan></text>
<g
         transform="scale(0.01)"
         id="g16266"><g
           id="g16268"><g
             clip-path="url(#clipPath16274)"
             id="g16270"><path
               inkscape:connector-curvature="0"
               id="path16276"
               style="fill:#000000;fill-opacity:1;fill-rule:nonzero;stroke:none"
               d="M 106,355 H 732 V 272 H 106 v 83" /></g></g></g></g><path
       inkscape:connector-curvature="0"
       id="path16278"
       style="fill:#000000;fill-opacity:1;fill-rule:nonzero;stroke:#000000;stroke-width:0.80000001;stroke-linecap:butt;stroke-linejoin:round;stroke-miterlimit:10;stroke-dasharray:none;stroke-opacity:1"
       d="m 57.640865,179.19958 h -3.5" /><g
       transform="translate(20.00024,175.4027)"
       id="g16280"><text
         id="text16284"
         style="font-variant:normal;font-weight:normal;font-size:10px;font-family:DejaVuSans;-inkscape-font-specification:DejaVuSans;writing-mode:lr-tb;fill:#000000;fill-opacity:1;fill-rule:nonzero;stroke:none"
         transform="matrix(1,0,0,-1,8.3789063,0)"><tspan
           id="tspan16282"
           sodipodi:role="line"
           y="0"
           x="0 6.3600001 9.54 15.9">0.25</tspan></text>
<g
         transform="scale(0.01)"
         id="g16286"><g
           id="g16288"><g
             clip-path="url(#clipPath16294)"
             id="g16290"><path
               inkscape:connector-curvature="0"
               id="path16296"
               style="fill:#000000;fill-opacity:1;fill-rule:nonzero;stroke:none"
               d="M 106,355 H 732 V 272 H 106 v 83" /></g></g></g></g><g
       transform="rotate(90,-55.324099,69.824339)"
       id="g16298"><text
         id="text16302"
         style="font-variant:normal;font-weight:normal;font-size:12px;font-family:DejaVuSans;-inkscape-font-specification:DejaVuSans;writing-mode:lr-tb;fill:#000000;fill-opacity:1;fill-rule:nonzero;stroke:none"
         transform="matrix(1,0,0,-1,0,0.875)"><tspan
           id="tspan16300"
           sodipodi:role="line"
           y="0"
           x="0 8.3378906 15.919922 24.257812 28.072266 40.388672 45.322266 52.675781 60.292969">RER [rad]</tspan></text>
<g
         transform="matrix(0.012,0,0,0.012,32.753906,0.875)"
         id="g16304"><g
           id="g16306"><g
             clip-path="url(#clipPath16312)"
             id="g16308"><g
               id="g16314"><path
                 inkscape:connector-curvature="0"
                 id="path16316"
                 style="fill:#000000;fill-opacity:1;fill-rule:nonzero;stroke:none"
                 d="m -12,-207 146,754 h 90 L 158,207 c -2,-8 -3,-16 -4,-24 -1,-8 -1,-17 -1,-25 0,-30 9,-54 28,-70 19,-16 46,-24 82,-24 48,0 86,13 116,41 30,27 50,68 61,123 l 62,319 h 90 L 510,126 c -2,-6 -3,-12 -3,-16 0,-4 0,-8 0,-12 0,-10 2,-18 6,-22 4,-5 10,-7 19,-7 3,0 7,0 13,2 6,2 14,5 25,9 L 556,8 C 542,1 528,-3 515,-7 c -13,-4 -26,-6 -38,-6 -22,0 -39,7 -51,20 C 414,20 408,39 408,63 390,37 368,17 343,5 317,-7 288,-13 254,-13 223,-13 196,-6 174,7 152,21 137,39 130,62 L 77,-207 h -89" /></g></g></g></g></g><rect
       transform="scale(1,-1)"
       y="-192.21828"
       x="148.44244"
       height="65.424271"
       width="5.7189369"
       id="rect17277"
       style="fill:#b6f9a7;fill-opacity:1;stroke:#ffffff;stroke-width:0;stroke-miterlimit:4;stroke-dasharray:none;stroke-dashoffset:0;stroke-opacity:0.66666667" /><g
       clip-path="url(#clipPath16324)"
       id="g16320"><path
         inkscape:connector-curvature="0"
         id="path16326"
         style="fill:none;stroke:#1f77b4;stroke-width:1.5;stroke-linecap:square;stroke-linejoin:round;stroke-miterlimit:10;stroke-dasharray:none;stroke-opacity:1"
         d="m -1,191.13543 0.269112,0.004 5.728806,-0.47141 4.576856,-0.94604 2.290552,-0.27781 2.289035,-0.41724 6.497886,-0.0527 2.862431,-0.41697 1.329126,-0.80814 0.388332,0.55795 1.518136,-1.00326 3.621498,-0.91861 2.099723,-0.25 3.810811,-1.08585 1.90677,-0.41742 1.141332,-0.50146 1.524506,-0.4176 3.047193,-1.00254 12.58423,-2.79685 1.140573,-0.57117 3.808687,-1.28106 2.290552,-0.27781 6.102272,-1.27998 3.812935,-0.89063 1.522686,-0.58494 3.812934,-0.89063 2.290248,-0.30569 2.292372,-0.11047 3.814148,-0.77908 2.282664,-1.0029 1.142697,-0.37595 1.140573,-0.57117 1.907074,-0.38954 1.522231,-0.62677 2.672361,-0.31945 1.907074,-0.38954 3.680054,-1.39268 1.27118,-0.27829 1.90404,-0.66842 2.66189,-1.2816 6.10288,-1.22421 1.52906,7.2e-4 3.81839,-0.38864 2.28934,-0.38936 0.75937,-0.47374 1.28362,0.86514 1.78876,0.44706 2.29449,0.0847 3.05751,-0.0543 4.19535,-0.87651 3.42627,-1.29519 1.52178,-0.6686 1.77692,-0.64059 2.03343,-0.48709 1.14042,-0.58512 1.13724,-0.87794 0.75998,-0.41797 1.51844,-0.97537 0.37012,-1.11535 0.38803,0.53005 0.74784,-1.5335 0.17475,16.06372 0.23118,-13.88824 0.0114,1.04581 0.0441,4.05777 0.35587,-2.42612 0.16019,0.6694 0.0178,-1.88245 0.71529,-1.01201 0.077,3.56416 0.55883,-1.33838 0.0382,3.51394 0.70991,-5.01955 0.74815,-1.50561 0.0109,1.00398 1.5054,-2.17457 0.16018,0.66939 0.0219,2.00796 0.59706,-1.33835 0.0546,5.01991 0.11558,-6.94412 0.0273,2.50995 0.53881,-3.179 0.78,1.42267 0.0273,2.50995 0.73176,-3.01159 0.0492,4.51793 1.48537,-4.01521 0.0273,2.50995 0.53449,-3.57641 0.19727,0.56483 0.071,6.52588 1.46352,-6.02317 0.0655,6.02389 0.69336,-6.54226 0.0651,5.98485 0.15397,-3.41624 0.93882,-1.54735 0.97546,1.82017 0.17862,-1.15031 0.0382,3.51394 0.13425,-5.22899 0.0378,3.47211 0.22208,2.84471 0.32705,-5.07551 0.74875,-1.44984 0.0646,5.94023 0.73055,-3.12314 0.0273,2.50995 0.0986,-4.99195 0.0551,1.54783 0.0218,2.00796 0.54534,-2.5794 0.80397,3.62585 0.7087,-5.13111 0.004,0.39044 0.0437,4.01593 0.11638,-3.35769 1.39872,2.07554 0.726,-3.54146 0.005,0.4741 0.0273,2.50996 1.90465,-0.61265 0.34813,-3.13726 0.006,0.57171 0.0218,2.00796 1.65035,-2.90518 0.61836,0.61941 0.0218,2.00797 1.49387,-3.23433 0.15897,0.55783 0.61891,0.66961 0.0164,1.50598 1.49477,-3.15067 0.005,0.41833 0.19766,0.59969 0.20615,1.38056 0.37134,-1.0038 0.005,0.4741 1.5063,-2.09091 0.0203,1.86853 0.88977,-2.54299 1.01245,1.70723 0.37073,-1.05958 0.005,0.502 0.74693,-1.61717 0.1975,0.58574 0.56217,-1.0316 0.0194,1.78486 0.73085,-3.09525 0.39228,0.9205 0.0109,1.00398 0.10982,-1.61747 0.26698,1.11566 2.26173,-2.9272 0.80003,3.2633 0.3768,-0.50181 0.36467,-1.61735 0.0109,1.00398 0.74329,-1.95182 0.005,0.44621 1.53391,0.44693 0.16018,0.6694 0.59039,-1.9519 0.005,0.48805 2.28008,-1.23996 0.005,0.41833 0.19781,0.61363 0.58068,0.66959 0.0109,1.00399 1.49957,-2.71004 0.74669,-1.63947 0.0364,3.3466 0.1677,-2.15428 0.96362,0.73252 0.005,0.50199 0.37043,-1.08747 1.51995,-0.83593 0.75725,-0.66896 1.26572,-0.78028 0.6456,0.78118 0.76954,0.46052 0.0105,0.96215 1.89221,-1.75607 1.1427,-0.37596 1.14057,-0.57117 1.52572,-0.30605 1.14042,-0.58512 1.90435,-0.64053 1.90737,-0.36165 0.12075,-0.61348 1.01603,-0.30629 0.0519,4.76891 0.36406,-1.67312 0.005,0.50199 0.37104,-1.03169 2.28114,-1.14235 1.13815,-0.79428 1.52496,-0.37577 1.90313,-0.75209 1.52238,-0.61282 2.28813,-0.50091 3.04476,-1.22565 1.52633,-0.25028 1.90631,-0.45925 2.67327,-0.2358 6.87894,-0.16408 6.86619,-1.33541 0.83037,6.05215 1.1204,-2.42575 0.005,0.50199 0.37195,-0.94803 2.66659,-0.84933 1.14088,-0.54329 1.52542,-0.33394 3.80777,-1.36473 2.28843,-0.47302 1.90359,-0.71026 0.40183,1.79899 0.0491,4.51792 0.3495,-3.01177 0.3859,0.33484 0.005,0.50199 1.90086,-0.96125 4.19504,-0.90439 1.52754,-0.13872 4.19035,-1.33666 1.90586,-0.5011 1.52238,-0.61282 4.57625,-1.00182 2.29116,-0.22203 6.88075,0.003 1.90996,-0.1246 10.3225,0.13036 2.29177,-0.16625 1.52541,-0.33394 5.34412,-0.69469 11.07049,-1.38919 1.90707,-0.38954 4.58687,-0.0257 2.2948,0.11263 2.29237,-0.11047 2.29359,0.001 8.40071,-0.83269 1.91087,-0.0409 1.90722,-0.37559 3.82447,0.16913 1.22597,7.27941 0.0164,1.50597 0.1341,0.61361 0.0297,-3.12347 1.71655,-0.33385 1.14224,-0.41779 0.37772,-0.41815 2.66356,-1.12822 4.19505,-0.90439 4.58171,-0.49983 4.57867,-0.77871 2.29177,-0.16625 2.29328,-0.0268 4.58505,-0.19306 2.28934,-0.38936 5.34472,-0.63891 10.69763,-0.52484 3.15732,9.12095 0.61379,-2.40617 1.63975,-1.27402 4.81805,-2.2009 4.31807,-1.30872 4.57898,-0.75082 7.64194,-0.30317 2.2942,0.0568 4.58504,-0.19305 v 0" /></g><path
       inkscape:connector-curvature="0"
       id="path16330"
       style="fill:none;stroke:#000000;stroke-width:0.80000001;stroke-linecap:square;stroke-linejoin:miter;stroke-miterlimit:10;stroke-dasharray:none;stroke-opacity:1"
       d="m 57.640865,126.2987 v 65.69947" /><path
       inkscape:connector-curvature="0"
       id="path16332"
       style="fill:none;stroke:#000000;stroke-width:0.80000001;stroke-linecap:square;stroke-linejoin:miter;stroke-miterlimit:10;stroke-dasharray:none;stroke-opacity:1"
       d="m 397.2918,126.2987 v 65.69947" /><path
       inkscape:connector-curvature="0"
       id="path16334"
       style="fill:none;stroke:#000000;stroke-width:0.80000001;stroke-linecap:square;stroke-linejoin:miter;stroke-miterlimit:10;stroke-dasharray:none;stroke-opacity:1"
       d="M 57.640865,126.2987 H 397.2918" /><path
       inkscape:connector-curvature="0"
       id="path16336"
       style="fill:none;stroke:#000000;stroke-width:0.80000001;stroke-linecap:square;stroke-linejoin:miter;stroke-miterlimit:10;stroke-dasharray:none;stroke-opacity:1"
       d="M 57.640865,191.99817 H 397.2918" /><path
       inkscape:connector-curvature="0"
       id="path16338"
       style="fill:#ffffff;fill-opacity:1;fill-rule:nonzero;stroke:none"
       d="M 57.640865,35.297115 H 397.2918 V 100.99659 H 57.640865 Z" /><path
       inkscape:connector-curvature="0"
       id="path16340"
       style="fill:#000000;fill-opacity:1;fill-rule:nonzero;stroke:#000000;stroke-width:0.80000001;stroke-linecap:butt;stroke-linejoin:round;stroke-miterlimit:10;stroke-dasharray:none;stroke-opacity:1"
       d="m 57.640865,35.297115 v -3.5" /><text
       id="text16344"
       style="font-variant:normal;font-weight:normal;font-size:10px;font-family:DejaVuSans;-inkscape-font-specification:DejaVuSans;writing-mode:lr-tb;fill:#000000;fill-opacity:1;fill-rule:nonzero;stroke:none"
       transform="scale(1,-1)"
       x="54.461178"
       y="-20.703365"><tspan
         id="tspan16342"
         y="-20.703365"
         x="54.461178">0</tspan></text>
<path
       inkscape:connector-curvature="0"
       id="path16346"
       style="fill:#000000;fill-opacity:1;fill-rule:nonzero;stroke:#000000;stroke-width:0.80000001;stroke-linecap:butt;stroke-linejoin:round;stroke-miterlimit:10;stroke-dasharray:none;stroke-opacity:1"
       d="m 109.10313,35.297115 v -3.5" /><text
       id="text16350"
       style="font-variant:normal;font-weight:normal;font-size:10px;font-family:DejaVuSans;-inkscape-font-specification:DejaVuSans;writing-mode:lr-tb;fill:#000000;fill-opacity:1;fill-rule:nonzero;stroke:none"
       transform="scale(1,-1)"
       x="105.92344"
       y="-20.703365"><tspan
         id="tspan16348"
         y="-20.703365"
         x="105.92344">5</tspan></text>
<path
       inkscape:connector-curvature="0"
       id="path16352"
       style="fill:#000000;fill-opacity:1;fill-rule:nonzero;stroke:#000000;stroke-width:0.80000001;stroke-linecap:butt;stroke-linejoin:round;stroke-miterlimit:10;stroke-dasharray:none;stroke-opacity:1"
       d="m 160.56539,35.297115 v -3.5" /><text
       id="text16356"
       style="font-variant:normal;font-weight:normal;font-size:10px;font-family:DejaVuSans;-inkscape-font-specification:DejaVuSans;writing-mode:lr-tb;fill:#000000;fill-opacity:1;fill-rule:nonzero;stroke:none"
       transform="scale(1,-1)"
       x="154.20602"
       y="-20.703365"><tspan
         id="tspan16354"
         sodipodi:role="line"
         y="-20.703365"
         x="154.20602 160.56602">10</tspan></text>
<path
       inkscape:connector-curvature="0"
       id="path16358"
       style="fill:#000000;fill-opacity:1;fill-rule:nonzero;stroke:#000000;stroke-width:0.80000001;stroke-linecap:butt;stroke-linejoin:round;stroke-miterlimit:10;stroke-dasharray:none;stroke-opacity:1"
       d="m 212.02765,35.297115 v -3.5" /><text
       id="text16362"
       style="font-variant:normal;font-weight:normal;font-size:10px;font-family:DejaVuSans;-inkscape-font-specification:DejaVuSans;writing-mode:lr-tb;fill:#000000;fill-opacity:1;fill-rule:nonzero;stroke:none"
       transform="scale(1,-1)"
       x="205.66827"
       y="-20.703365"><tspan
         id="tspan16360"
         sodipodi:role="line"
         y="-20.703365"
         x="205.66827 212.02827">15</tspan></text>
<path
       inkscape:connector-curvature="0"
       id="path16364"
       style="fill:#000000;fill-opacity:1;fill-rule:nonzero;stroke:#000000;stroke-width:0.80000001;stroke-linecap:butt;stroke-linejoin:round;stroke-miterlimit:10;stroke-dasharray:none;stroke-opacity:1"
       d="m 263.48992,35.297115 v -3.5" /><text
       id="text16368"
       style="font-variant:normal;font-weight:normal;font-size:10px;font-family:DejaVuSans;-inkscape-font-specification:DejaVuSans;writing-mode:lr-tb;fill:#000000;fill-opacity:1;fill-rule:nonzero;stroke:none"
       transform="scale(1,-1)"
       x="257.13055"
       y="-20.703365"><tspan
         id="tspan16366"
         sodipodi:role="line"
         y="-20.703365"
         x="257.13055 263.49054">20</tspan></text>
<path
       inkscape:connector-curvature="0"
       id="path16370"
       style="fill:#000000;fill-opacity:1;fill-rule:nonzero;stroke:#000000;stroke-width:0.80000001;stroke-linecap:butt;stroke-linejoin:round;stroke-miterlimit:10;stroke-dasharray:none;stroke-opacity:1"
       d="m 314.95218,35.297115 v -3.5" /><text
       id="text16374"
       style="font-variant:normal;font-weight:normal;font-size:10px;font-family:DejaVuSans;-inkscape-font-specification:DejaVuSans;writing-mode:lr-tb;fill:#000000;fill-opacity:1;fill-rule:nonzero;stroke:none"
       transform="scale(1,-1)"
       x="308.5928"
       y="-20.703365"><tspan
         id="tspan16372"
         sodipodi:role="line"
         y="-20.703365"
         x="308.5928 314.95279">25</tspan></text>
<path
       inkscape:connector-curvature="0"
       id="path16376"
       style="fill:#000000;fill-opacity:1;fill-rule:nonzero;stroke:#000000;stroke-width:0.80000001;stroke-linecap:butt;stroke-linejoin:round;stroke-miterlimit:10;stroke-dasharray:none;stroke-opacity:1"
       d="m 366.41444,35.297115 v -3.5" /><text
       id="text16380"
       style="font-variant:normal;font-weight:normal;font-size:10px;font-family:DejaVuSans;-inkscape-font-specification:DejaVuSans;writing-mode:lr-tb;fill:#000000;fill-opacity:1;fill-rule:nonzero;stroke:none"
       transform="scale(1,-1)"
       x="360.05508"
       y="-20.703365"><tspan
         id="tspan16378"
         sodipodi:role="line"
         y="-20.703365"
         x="360.05508 366.41507">30</tspan></text>
<text
       id="text16384"
       style="font-variant:normal;font-weight:normal;font-size:12px;font-family:DejaVuSans;-inkscape-font-specification:DejaVuSans;writing-mode:lr-tb;fill:#000000;fill-opacity:1;fill-rule:nonzero;stroke:none"
       transform="scale(1,-1)"
       x="212.48978"
       y="-5.5002398"><tspan
         id="tspan16382"
         sodipodi:role="line"
         y="-5.5002398"
         x="212.48978 221.72977 229.08577 236.18977">Days</tspan></text>
<path
       inkscape:connector-curvature="0"
       id="path16386"
       style="fill:#000000;fill-opacity:1;fill-rule:nonzero;stroke:#000000;stroke-width:0.80000001;stroke-linecap:butt;stroke-linejoin:round;stroke-miterlimit:10;stroke-dasharray:none;stroke-opacity:1"
       d="m 57.640865,57.19694 h -3.5" /><g
       transform="translate(29.547115,53.400065)"
       id="g16388"><text
         id="text16392"
         style="font-variant:normal;font-weight:normal;font-size:10px;font-family:DejaVuSans;-inkscape-font-specification:DejaVuSans;writing-mode:lr-tb;fill:#000000;fill-opacity:1;fill-rule:nonzero;stroke:none"
         transform="matrix(1,0,0,-1,8.3789063,0)"><tspan
           id="tspan16390"
           sodipodi:role="line"
           y="0"
           x="0 6.3600001">40</tspan></text>
<g
         transform="scale(0.01)"
         id="g16394"><g
           id="g16396"><g
             clip-path="url(#clipPath16402)"
             id="g16398"><path
               inkscape:connector-curvature="0"
               id="path16404"
               style="fill:#000000;fill-opacity:1;fill-rule:nonzero;stroke:none"
               d="M 106,355 H 732 V 272 H 106 v 83" /></g></g></g></g><path
       inkscape:connector-curvature="0"
       id="path16406"
       style="fill:#000000;fill-opacity:1;fill-rule:nonzero;stroke:#000000;stroke-width:0.80000001;stroke-linecap:butt;stroke-linejoin:round;stroke-miterlimit:10;stroke-dasharray:none;stroke-opacity:1"
       d="m 57.640865,86.396706 h -3.5" /><g
       transform="translate(29.547115,82.599831)"
       id="g16408"><text
         id="text16412"
         style="font-variant:normal;font-weight:normal;font-size:10px;font-family:DejaVuSans;-inkscape-font-specification:DejaVuSans;writing-mode:lr-tb;fill:#000000;fill-opacity:1;fill-rule:nonzero;stroke:none"
         transform="matrix(1,0,0,-1,8.3789063,0)"><tspan
           id="tspan16410"
           sodipodi:role="line"
           y="0"
           x="0 6.3600001">20</tspan></text>
<g
         transform="scale(0.01)"
         id="g16414"><g
           id="g16416"><g
             clip-path="url(#clipPath16422)"
             id="g16418"><path
               inkscape:connector-curvature="0"
               id="path16424"
               style="fill:#000000;fill-opacity:1;fill-rule:nonzero;stroke:none"
               d="M 106,355 H 732 V 272 H 106 v 83" /></g></g></g></g><g
       transform="rotate(90,-9.323306,23.823546)"
       id="g16426"><text
         id="text16430"
         style="font-variant:normal;font-weight:normal;font-size:12px;font-family:DejaVuSans;-inkscape-font-specification:DejaVuSans;writing-mode:lr-tb;fill:#000000;fill-opacity:1;fill-rule:nonzero;stroke:none"
         transform="matrix(1,0,0,-1,0,0.875)"><tspan
           id="tspan16428"
           sodipodi:role="line"
           y="0"
           x="0 10.353516 18.222656 25.839844 29.654297 41.970703 46.904297 54.257812 61.875">MKS [rad]</tspan></text>
<g
         transform="matrix(0.012,0,0,0.012,34.335937,0.875)"
         id="g16432"><g
           id="g16434"><g
             clip-path="url(#clipPath16440)"
             id="g16436"><g
               id="g16442"><path
                 inkscape:connector-curvature="0"
                 id="path16444"
                 style="fill:#000000;fill-opacity:1;fill-rule:nonzero;stroke:none"
                 d="m -12,-207 146,754 h 90 L 158,207 c -2,-8 -3,-16 -4,-24 -1,-8 -1,-17 -1,-25 0,-30 9,-54 28,-70 19,-16 46,-24 82,-24 48,0 86,13 116,41 30,27 50,68 61,123 l 62,319 h 90 L 510,126 c -2,-6 -3,-12 -3,-16 0,-4 0,-8 0,-12 0,-10 2,-18 6,-22 4,-5 10,-7 19,-7 3,0 7,0 13,2 6,2 14,5 25,9 L 556,8 C 542,1 528,-3 515,-7 c -13,-4 -26,-6 -38,-6 -22,0 -39,7 -51,20 C 414,20 408,39 408,63 390,37 368,17 343,5 317,-7 288,-13 254,-13 223,-13 196,-6 174,7 152,21 137,39 130,62 L 77,-207 h -89" /></g></g></g></g></g><rect
       style="fill:#b6f9a7;fill-opacity:1;stroke:#ffffff;stroke-width:0;stroke-miterlimit:4;stroke-dasharray:none;stroke-dashoffset:0;stroke-opacity:0.66666667"
       id="rect17279"
       width="6.1231475"
       height="65.020058"
       x="149.25085"
       y="-100.86668"
       transform="scale(1,-1)" /><g
       clip-path="url(#clipPath16452)"
       id="g16448"><path
         inkscape:connector-curvature="0"
         id="path16454"
         style="fill:none;stroke:#1f77b4;stroke-width:1.5;stroke-linecap:square;stroke-linejoin:round;stroke-miterlimit:10;stroke-dasharray:none;stroke-opacity:1"
         d="m 42.578741,118.03209 0.06562,-2.43562 0.0064,1.12419 1.163986,-5.09226 0.947056,-1.29847 0.948262,-1.08768 1.42497,-1.18069 0.947793,-1.16966 2.850609,-2.24426 2.37658,-1.68286 0.470616,-1.15863 0.946855,-1.33361 2.608975,-2.771565 0.82895,-1.087857 1.591899,-1.199182 1.137726,-1.338012 c 8.304733,-5.262664 1.75522,-1.255169 11.883968,-8.226927 l 1.66473,-0.981269 3.327854,-2.243583 5.710057,-2.942779 1.903353,-0.980927 3.810923,-1.224106 7.617828,-3.150829 1.903955,-0.875534 5.714474,-2.169903 1.90637,-0.453964 1.90556,-0.594488 3.81334,-0.802538 1.90556,-0.594488 3.81373,-0.732275 1.90476,-0.735011 7.62727,-1.499683 1.90516,-0.664749 3.81574,-0.380968 1.90617,-0.489096 3.80992,-1.399761 1.90636,-0.453964 1.66607,-0.747064 1.66339,-1.215473 1.66259,-1.355997 1.18521,-1.380101 1.8919,-2.98338 0.49492,3.092192 0.006,1.089054 1.90074,-1.437627 1.90235,-1.15658 1.90496,-0.699881 3.80851,-1.645676 1.67377,0.599617 0.48501,1.359074 0.0137,2.388893 0.38785,1.059154 1.52032,-1.196942 7.37566,-3.771815 2.04865,-0.608335 1.04962,-0.0547 0.0297,5.199355 0.0916,-0.674374 2.04737,-0.833172 1.19291,-0.03342 0.96814,2.39026 2.13877,-1.542677 2.04877,-0.587257 0.83036,3.33156 0.47262,-0.807324 1.666,-0.758773 1.66447,-1.02811 1.1911,-0.349598 1.06142,2.010985 1.80753,-1.046641 1.66386,-1.133501 1.35173,-0.08004 1.04735,2.331823 1.6648,-0.969558 2.85221,-1.96322 1.66547,-0.852456 1.90637,-0.453965 1.19391,0.142233 0.27036,5.551004 1.66004,-1.800986 4.7553,-2.990988 1.18722,-1.028794 3.57156,-1.353261 1.66487,-0.957848 1.90717,-0.313442 1.90596,-0.524226 1.43133,-0.06821 0.48327,1.054607 0.80237,1.219007 2.06069,-1.285166 1.66741,-0.512858 0.48957,2.155372 0.15506,-0.702388 1.74936,-0.09117 1.42611,-0.98161 1.66493,-0.946138 1.90918,0.03787 0.005,0.843139 1.90114,-1.367365 1.90757,-0.24318 1.6725,0.377121 1.19699,0.680905 1.90576,-0.559357 2.04982,-0.404577 1.05026,0.05771 0.0917,2.131381 2.06551,-0.442027 3.56996,-1.634307 1.66446,-1.02811 1.66982,-0.09129 0.96788,2.34342 0.234,-0.807666 3.80852,-1.645676 1.66486,-0.957848 1.8101,-0.596967 1.7689,0.543544 1.90254,-1.121449 1.90537,-0.629619 1.43233,0.107444 0.91584,1.58921 1.95285,-0.671707 1.90375,-0.910665 1.90817,-0.137788 0.96132,1.195814 0.71788,0.352334 1.66513,-0.911007 1.90576,-0.559357 1.67196,0.283439 0.4893,2.10853 0.0921,-0.59006 2.04749,-0.812093 1.90396,-0.875535 1.43354,0.318229 0.006,1.053923 0.96052,1.055291 1.90315,-1.016057 2.06585,-0.383476 1.74989,0.0025 1.90456,-0.770142 1.76926,0.606779 2.04849,-0.636439 1.90657,-0.418835 1.39345,1.65313 1.71513,-0.51279 1.66446,-1.028109 1.43093,-0.138472 0.96011,0.98503 3.80932,-1.505153 1.43234,0.107443 0.44301,2.361404 1.95124,-0.952753 1.90275,-1.086319 1.66962,-0.12642 0.72082,0.867585 1.6654,-0.864166 1.80924,-0.746858 1.76801,0.388969 1.66842,-0.337204 0.72062,0.832454 1.90315,-1.016057 1.66821,-0.372335 0.25081,2.131609 2.37939,-1.191028 1.90436,-0.805272 1.90576,-0.559358 1.43233,0.107444 0.25248,2.424366 2.14178,-1.015716 1.90255,-1.121449 1.90395,-0.875534 1.90556,-0.594488 1.86118,-0.01139 0.77585,2.146414 2.14084,-1.179659 1.90476,-0.735011 1.90676,-0.383704 1.90577,-0.559357 1.66961,-0.126419 0.74172,4.521185 0.47182,-0.947847 5.71045,-2.872518 5.71629,-1.853725 0.23246,-1.077002 0.49492,3.092192 0.15533,-0.655547 1.98798,-0.09083 1.90537,-0.629619 1.90676,-0.383703 3.80771,-1.7862 1.90617,-0.489095 1.67048,0.02581 1.13071,2.999421 1.98491,-0.629504 1.90475,-0.735011 3.81173,-1.083584 1.90657,-0.418834 1.90757,-0.24318 0.96794,2.355129 0.0716,-1.381696 0.49385,2.904828 0.45223,1.1904 1.6169,-1.000073 1.6658,-0.793904 3.80932,-1.505153 1.90576,-0.559357 3.80932,-1.505153 1.9079,-0.184629 0.82549,2.479053 5.85479,-2.668554 1.95546,-0.215007 1.39188,1.379109 1.90616,-0.489095 1.90396,-0.875534 3.80972,-1.434892 1.90656,-0.418834 2.05231,0.03104 1.29001,0.254788 0.0125,2.178108 0.80309,1.343916 3.96714,-1.723516 7.62145,-2.518475 1.90717,-0.313442 1.90536,-0.629619 1.90676,-0.383703 1.90798,-0.172919 1.43796,1.091106 3.81413,-0.662014 1.90978,0.143258 1.19472,0.282756 0.012,2.107846 0.15453,-0.796069 1.98946,0.166793 3.81052,-1.294369 1.90576,-0.559357 1.90677,-0.383703 1.67209,0.30686 0.80023,0.844278 1.83051,0.189986 1.90837,-0.102657 3.81353,-0.767407 1.95626,-0.07448 1.25771,2.952763 0.62186,0.25383 1.90275,-1.086318 1.90416,-0.840404 3.81072,-1.259237 3.2241,-0.816402 v 0"
         sodipodi:nodetypes="cccccccccccccccccccccccccccccccccccccccccccccccccccccccccccccccccccccccccccccccccccccccccccccccccccccccccccccccccccccccccccccccccccccccccccccccccccccccccccccccccccccccccccccccccccccccccccccccccccccccccccccccccccccccccccccccccccccccccccccccccccccccc" /></g><path
       inkscape:connector-curvature="0"
       id="path16458"
       style="fill:none;stroke:#000000;stroke-width:0.80000001;stroke-linecap:square;stroke-linejoin:miter;stroke-miterlimit:10;stroke-dasharray:none;stroke-opacity:1"
       d="M 57.640865,35.297115 V 100.99659" /><path
       inkscape:connector-curvature="0"
       id="path16460"
       style="fill:none;stroke:#000000;stroke-width:0.80000001;stroke-linecap:square;stroke-linejoin:miter;stroke-miterlimit:10;stroke-dasharray:none;stroke-opacity:1"
       d="M 397.2918,35.297115 V 100.99659" /><path
       inkscape:connector-curvature="0"
       id="path16462"
       style="fill:none;stroke:#000000;stroke-width:0.80000001;stroke-linecap:square;stroke-linejoin:miter;stroke-miterlimit:10;stroke-dasharray:none;stroke-opacity:1"
       d="M 57.640865,35.297115 H 397.2918" /><path
       inkscape:connector-curvature="0"
       id="path16464"
       style="fill:none;stroke:#000000;stroke-width:0.80000001;stroke-linecap:square;stroke-linejoin:miter;stroke-miterlimit:10;stroke-dasharray:none;stroke-opacity:1"
       d="M 57.640865,100.99659 H 397.2918" /><text
       xml:space="preserve"
       style="font-style:normal;font-weight:normal;font-size:12px;line-height:1.25;font-family:sans-serif;letter-spacing:0.015px;word-spacing:0px;fill:#000000;fill-opacity:1;stroke:none;stroke-width:0.75"
       x="309.10153"
       y="-267.728"
       id="text17204"
       transform="scale(1,-1)"><tspan
         sodipodi:role="line"
         id="tspan17202"
         x="309.10153"
         y="-267.728"
         style="stroke-width:0.75">Kilauea, 2018</tspan></text>
<text
       transform="scale(1,-1)"
       id="text17208"
       y="-87.172295"
       x="285.50186"
       style="font-style:normal;font-weight:normal;font-size:12px;line-height:1.25;font-family:sans-serif;letter-spacing:0.015px;word-spacing:0px;fill:#000000;fill-opacity:1;stroke:none;stroke-width:0.75"
       xml:space="preserve"><tspan
         style="stroke-width:0.75"
         y="-87.172295"
         x="285.50186"
         id="tspan17206"
         sodipodi:role="line">Miyakejima, 2000</tspan></text>
<text
       transform="scale(1,-1)"
       id="text17212"
       y="-177.45013"
       x="228.04974"
       style="font-style:normal;font-weight:normal;font-size:12px;line-height:1.25;font-family:sans-serif;letter-spacing:0.015px;word-spacing:0px;fill:#000000;fill-opacity:1;stroke:none;stroke-width:0.75"
       xml:space="preserve"><tspan
         style="stroke-width:0.75"
         y="-177.45013"
         x="228.04974"
         id="tspan17210"
         sodipodi:role="line">Piton de la Fournaise, 2007</tspan></text>
</g></svg>